# Blender v2.76 (sub 0) OBJ File: 'HandMadePaddle.blend'
# www.blender.org
mtllib Paddle.mtl
o Cylinder
v 0.000000 -1.000000 -1.000000
v 0.000000 1.000000 -1.000000
v 0.195090 -1.000000 -0.980785
v 0.195090 1.000000 -0.980785
v 0.382683 -1.000000 -0.923880
v 0.382683 1.000000 -0.923880
v 0.555570 -1.000000 -0.831470
v 0.555570 1.000000 -0.831470
v 0.707107 -1.000000 -0.707107
v 0.707107 1.000000 -0.707107
v 0.831470 -1.000000 -0.555570
v 0.831470 1.000000 -0.555570
v 0.923880 -1.000000 -0.382683
v 0.923880 1.000000 -0.382683
v 0.980785 -1.000000 -0.195090
v 0.980785 1.000000 -0.195090
v 1.000000 -1.000000 -0.000000
v 1.000000 1.000000 -0.000000
v -1.000000 -1.000000 -0.000001
v -1.000000 1.000000 -0.000001
v -0.980785 -1.000000 -0.195091
v -0.980785 1.000000 -0.195091
v -0.923879 -1.000000 -0.382684
v -0.923879 1.000000 -0.382684
v -0.831469 -1.000000 -0.555571
v -0.831469 1.000000 -0.555571
v -0.707106 -1.000000 -0.707108
v -0.707106 1.000000 -0.707108
v -0.555569 -1.000000 -0.831470
v -0.555569 1.000000 -0.831470
v -0.382682 -1.000000 -0.923880
v -0.382682 1.000000 -0.923880
v -0.195089 -1.000000 -0.980786
v -0.195089 1.000000 -0.980786
v -0.533893 -1.000000 3.695460
v -0.533893 1.000000 3.695460
v -0.494324 -1.000000 4.029204
v -0.494324 1.000000 4.029204
v -0.449212 -1.000000 4.350122
v -0.449212 1.000000 4.350122
v -0.404280 -1.000000 4.645882
v -0.404280 1.000000 4.645882
v -0.343812 -1.000000 4.905118
v -0.343812 1.000000 4.905118
v -0.270131 -1.000000 5.117867
v -0.270131 1.000000 5.117867
v -0.186070 -1.000000 5.275955
v -0.186070 1.000000 5.275955
v -0.094858 -1.000000 5.373304
v -0.094858 1.000000 5.373304
v -0.000000 -1.000000 5.406175
v -0.000000 1.000000 5.406175
v 0.094857 -1.000000 5.373304
v 0.094857 1.000000 5.373304
v 0.186070 -1.000000 5.275954
v 0.186070 1.000000 5.275954
v 0.270131 -1.000000 5.117867
v 0.270131 1.000000 5.117867
v 0.343812 -1.000000 4.905118
v 0.343812 1.000000 4.905118
v 0.404280 -1.000000 4.645882
v 0.404280 1.000000 4.645882
v 0.449212 -1.000000 4.350121
v 0.449212 1.000000 4.350121
v 0.496138 -1.000000 4.029202
v 0.496138 1.000000 4.029202
v 0.543326 -1.000000 3.695458
v 0.543326 1.000000 3.695458
vt 0.910427 0.000000
vt 0.935941 0.000000
vt 0.935941 0.314389
vt 0.959975 0.000000
vt 0.959975 0.314389
vt 0.981605 0.000000
vt 0.981605 0.314389
vt 1.000000 0.000000
vt 1.000000 0.314389
vt 0.264032 0.942481
vt 0.264032 0.919236
vt 0.529436 0.919236
vt 0.264032 0.892491
vt 0.529436 0.892491
vt 0.264032 0.863273
vt 0.529436 0.863273
vt 0.264032 0.832706
vt 0.529436 0.832706
vt 0.529436 0.083042
vt 0.529436 0.053047
vt 0.794840 0.053047
vt 0.529436 0.025008
vt 0.794840 0.025007
vt 0.529436 0.000000
vt 0.794840 0.000000
vt 0.813235 0.000000
vt 0.813235 0.314389
vt 0.834865 0.000000
vt 0.834865 0.314389
vt 0.858899 0.000000
vt 0.858899 0.314389
vt 0.884413 0.000000
vt 0.910427 0.314389
vt 0.884413 0.314389
vt 0.794840 0.721358
vt 0.529436 0.721358
vt 0.529436 0.668534
vt 0.794840 0.772299
vt 0.529436 0.772299
vt 0.794840 0.819317
vt 0.529436 0.819317
vt 0.794840 0.860969
vt 0.529436 0.860969
vt 0.794840 0.895654
vt 0.529436 0.895654
vt 0.794840 0.922039
vt 0.529436 0.922039
vt 0.794840 0.939110
vt 0.529436 0.939110
vt 0.803023 0.314389
vt 0.803023 0.628779
vt 0.794840 0.628779
vt 0.815957 0.314389
vt 0.815957 0.628779
vt 0.833143 0.314389
vt 0.833143 0.628779
vt 0.529436 0.025222
vt 0.264032 0.025222
vt 0.264032 0.000000
vt 0.529436 0.058987
vt 0.264032 0.058987
vt 0.529436 0.099995
vt 0.264032 0.099995
vt 0.529436 0.146672
vt 0.264032 0.146672
vt 0.529436 0.197311
vt 0.264032 0.197311
vt 0.529436 0.249966
vt 0.264032 0.249966
vt 0.794840 0.668534
vt 0.000694 0.176368
vt 0.264032 0.137218
vt 0.263727 0.722727
vt 0.233646 0.993016
vt 0.221699 1.000000
vt 0.244047 0.976047
vt 0.252503 0.949745
vt 0.258689 0.915120
vt 0.262367 0.873503
vt 0.263395 0.826493
vt 0.264032 0.775556
vt 0.258278 0.107166
vt 0.247685 0.079021
vt 0.232661 0.053864
vt 0.213782 0.032663
vt 0.191774 0.016233
vt 0.167483 0.005204
vt 0.141843 0.000000
vt 0.115838 0.000822
vt 0.090468 0.007638
vt 0.066708 0.020185
vt 0.045472 0.037983
vt 0.027574 0.060346
vt 0.013703 0.086416
vt 0.004393 0.115190
vt 0.000000 0.145563
vt 0.208666 0.996730
vt 0.121891 0.743813
vt 0.195048 0.983332
vt 0.181367 0.960320
vt 0.168150 0.928580
vt 0.155904 0.889330
vt 0.145101 0.844079
vt 0.133619 0.794944
vt 0.529436 0.942481
vt 0.794840 0.083042
vt 0.794840 0.314389
vn 0.098000 0.000000 -0.995200
vn 0.290300 0.000000 -0.956900
vn 0.471400 0.000000 -0.881900
vn 0.634400 0.000000 -0.773000
vn 0.773000 0.000000 -0.634400
vn 0.881900 0.000000 -0.471400
vn 0.956900 0.000000 -0.290300
vn 0.995200 0.000000 -0.098000
vn -0.995200 0.000000 -0.098000
vn -0.956900 0.000000 -0.290300
vn -0.881900 0.000000 -0.471400
vn -0.773000 0.000000 -0.634400
vn -0.634400 0.000000 -0.773000
vn -0.471400 0.000000 -0.881900
vn -0.098000 0.000000 -0.995200
vn -0.290300 0.000000 -0.956900
vn -0.993000 0.000000 0.117700
vn -0.990300 0.000000 0.139200
vn -0.988700 0.000000 0.150200
vn -0.973900 0.000000 0.227200
vn -0.944900 0.000000 0.327300
vn -0.882900 0.000000 0.469500
vn -0.729700 0.000000 0.683700
vn -0.327400 0.000000 0.944900
vn 0.327400 0.000000 0.944900
vn 0.729700 0.000000 0.683700
vn 0.882900 0.000000 0.469500
vn 0.944900 0.000000 0.327300
vn 0.973900 0.000000 0.227200
vn 0.988700 0.000000 0.150200
vn 0.989500 0.000000 0.144700
vn 0.990200 0.000000 0.140000
vn 0.992500 0.000000 0.122600
vn -0.992100 0.000000 0.125100
vn 0.000000 1.000000 0.000000
usemtl None
s off
f 2/1/1 4/2/1 3/3/1
f 4/2/2 6/4/2 5/5/2
f 6/4/3 8/6/3 7/7/3
f 8/6/4 10/8/4 9/9/4
f 10/10/5 12/11/5 11/12/5
f 12/11/6 14/13/6 13/14/6
f 14/13/7 16/15/7 15/16/7
f 16/15/8 18/17/8 17/18/8
f 20/19/9 22/20/9 21/21/9
f 22/20/10 24/22/10 23/23/10
f 24/22/11 26/24/11 25/25/11
f 26/25/12 28/26/12 27/27/12
f 28/26/13 30/28/13 29/29/13
f 30/28/14 32/30/14 31/31/14
f 34/32/15 2/1/15 1/33/15
f 32/30/16 34/32/16 33/34/16
f 37/35/17 38/36/17 36/37/17
f 39/38/18 40/39/18 38/36/18
f 41/40/19 42/41/19 40/39/19
f 43/42/20 44/43/20 42/41/20
f 45/44/21 46/45/21 44/43/21
f 47/46/22 48/47/22 46/45/22
f 49/48/23 50/49/23 48/47/23
f 51/50/24 52/51/24 50/52/24
f 53/53/25 54/54/25 52/51/25
f 55/55/26 56/56/26 54/54/26
f 57/57/27 58/58/27 56/59/27
f 59/60/28 60/61/28 58/58/28
f 61/62/29 62/63/29 60/61/29
f 63/64/30 64/65/30 62/63/30
f 65/66/31 66/67/31 64/65/31
f 67/68/32 68/69/32 66/67/32
f 18/17/33 68/69/33 67/68/33
f 35/70/34 36/37/34 20/19/34
f 18/71/35 20/72/35 36/73/35
f 50/74/35 52/75/35 36/73/35
f 48/76/35 50/74/35 36/73/35
f 46/77/35 48/76/35 36/73/35
f 44/78/35 46/77/35 36/73/35
f 42/79/35 44/78/35 36/73/35
f 40/80/35 42/79/35 36/73/35
f 38/81/35 40/80/35 36/73/35
f 22/82/35 20/72/35 24/83/35
f 24/83/35 20/72/35 26/84/35
f 26/84/35 20/72/35 28/85/35
f 28/85/35 20/72/35 30/86/35
f 30/86/35 20/72/35 32/87/35
f 32/87/35 20/72/35 34/88/35
f 34/88/35 20/72/35 2/89/35
f 4/90/35 2/89/35 18/71/35
f 4/90/35 18/71/35 6/91/35
f 6/91/35 18/71/35 8/92/35
f 8/92/35 18/71/35 10/93/35
f 10/93/35 18/71/35 12/94/35
f 12/94/35 18/71/35 14/95/35
f 14/95/35 18/71/35 16/96/35
f 36/73/35 54/97/35 68/98/35
f 2/89/35 20/72/35 18/71/35
f 54/97/35 56/99/35 68/98/35
f 56/99/35 58/100/35 68/98/35
f 58/100/35 60/101/35 68/98/35
f 60/101/35 62/102/35 68/98/35
f 62/102/35 64/103/35 68/98/35
f 64/103/35 66/104/35 68/98/35
f 52/75/35 54/97/35 36/73/35
f 1/33/1 2/1/1 3/3/1
f 3/3/2 4/2/2 5/5/2
f 5/5/3 6/4/3 7/7/3
f 7/7/4 8/6/4 9/9/4
f 9/105/5 10/10/5 11/12/5
f 11/12/6 12/11/6 13/14/6
f 13/14/7 14/13/7 15/16/7
f 15/16/8 16/15/8 17/18/8
f 19/106/9 20/19/9 21/21/9
f 21/21/10 22/20/10 23/23/10
f 23/23/11 24/22/11 25/25/11
f 25/107/12 26/25/12 27/27/12
f 27/27/13 28/26/13 29/29/13
f 29/29/14 30/28/14 31/31/14
f 33/34/15 34/32/15 1/33/15
f 31/31/16 32/30/16 33/34/16
f 35/70/17 37/35/17 36/37/17
f 37/35/18 39/38/18 38/36/18
f 39/38/19 41/40/19 40/39/19
f 41/40/20 43/42/20 42/41/20
f 43/42/21 45/44/21 44/43/21
f 45/44/22 47/46/22 46/45/22
f 47/46/23 49/48/23 48/47/23
f 49/107/24 51/50/24 50/52/24
f 51/50/25 53/53/25 52/51/25
f 53/53/26 55/55/26 54/54/26
f 55/24/27 57/57/27 56/59/27
f 57/57/28 59/60/28 58/58/28
f 59/60/29 61/62/29 60/61/29
f 61/62/30 63/64/30 62/63/30
f 63/64/31 65/66/31 64/65/31
f 65/66/32 67/68/32 66/67/32
f 17/18/33 18/17/33 67/68/33
f 19/106/34 35/70/34 20/19/34
f 68/98/35 18/71/35 36/73/35
