# Blender v2.76 (sub 0) OBJ File: 'HandTable.blend'
# www.blender.org
mtllib HandTable.mtl
o Cylinder
v -72.921219 -0.105569 -49.114529
v -72.921219 4.894431 -49.114529
v -22.921223 4.894431 -49.114529
v 2.078781 -0.105569 -49.114529
v 2.078781 -0.105569 -49.114529
v -22.921234 -0.105569 50.885471
v 2.078781 4.894431 -49.114529
v -22.921234 4.894431 50.885471
v 2.078781 4.894431 -49.114529
v -22.921234 4.894431 50.885471
v 2.078781 -0.105569 -49.114529
v -22.921234 -0.105569 50.885471
v -22.921223 4.894431 -49.114529
v 2.078781 -0.105569 -49.114529
v 2.078766 4.894431 50.885471
v 2.078766 -0.105569 50.885471
v -22.921223 -0.105569 -49.114529
v 2.078781 -0.105569 -49.114529
v -72.921234 4.894431 50.885471
v 2.078781 4.894431 -49.114529
v -72.921234 -0.105569 50.885471
v -22.921223 -0.105569 -49.114529
v -72.921219 4.894431 -49.114529
v -72.921219 -0.105569 -49.114529
v -72.921234 -0.105569 50.885471
v -72.921234 4.894431 50.885471
v -82.675758 -0.105569 49.924732
v -82.675758 4.894431 49.924732
v -92.055412 -0.105569 47.079433
v -92.055412 4.894431 47.079433
v -100.699760 -0.105569 42.458935
v -100.699760 4.894431 42.458935
v -108.276581 -0.105569 36.240784
v -108.276581 4.894431 36.240784
v -114.494720 -0.105569 28.663946
v -114.494720 4.894431 28.663946
v -119.115211 -0.105569 20.019602
v -119.115211 4.894431 20.019602
v -121.960487 -0.105569 10.639939
v -121.960487 4.894431 10.639939
v -122.921227 -0.105569 0.885419
v -122.921227 4.894431 0.885419
v -121.960472 -0.105569 -8.869102
v -121.960472 4.894431 -8.869102
v -119.115181 -0.105569 -18.248758
v -119.115181 4.894431 -18.248758
v -114.494667 -0.105569 -26.893097
v -114.494667 4.894431 -26.893097
v -108.276512 -0.105569 -34.469913
v -108.276512 4.894431 -34.469913
v -100.699677 -0.105569 -40.688049
v -100.699677 4.894431 -40.688049
v -92.055321 -0.105569 -45.308533
v -92.055321 4.894431 -45.308533
v -82.675667 -0.105569 -48.153805
v -82.675667 4.894431 -48.153805
v 2.078781 4.894431 -49.114529
v 2.078781 -0.105569 -49.114529
v 2.078766 4.894431 50.885471
v 2.078766 -0.105569 50.885471
v 2.078781 -0.105569 -51.114529
v 2.078781 4.894431 -51.114529
v 2.078766 4.894431 52.885471
v 2.078766 -0.105569 52.885471
v 0.078766 4.894431 50.885471
v 0.078766 -0.105569 50.885471
v 0.078766 4.894431 50.885471
v 0.078766 -0.105569 50.885471
v 0.078781 -0.105569 -49.114529
v 0.078781 4.894431 -49.114529
v -72.921219 4.894431 -51.114529
v -72.921219 -0.105569 -51.114529
v -72.921234 -0.105569 50.885471
v -72.921234 4.894431 50.885471
v -72.921234 -0.105569 52.885471
v -72.921234 4.894431 52.885471
v -72.921219 -0.105569 -49.114529
v -72.921234 -0.105569 50.885471
v -82.675758 -0.105569 49.924732
v -92.055412 -0.105569 47.079433
v -100.699760 -0.105569 42.458935
v -108.276581 -0.105569 36.240784
v -114.494720 -0.105569 28.663946
v -119.115211 -0.105569 20.019602
v -121.960487 -0.105569 10.639939
v -122.921227 -0.105569 0.885419
v -121.960472 -0.105569 -8.869102
v -119.115181 -0.105569 -18.248758
v -114.494667 -0.105569 -26.893097
v -108.276512 -0.105569 -34.469913
v -100.699677 -0.105569 -40.688049
v -92.055321 -0.105569 -45.308533
v -82.675667 -0.105569 -48.153805
v -74.921219 -0.105569 -49.114529
v -74.921234 -0.105569 50.885471
v -86.417839 -0.105569 49.924732
v -94.055412 -0.105569 47.079433
v -102.699760 -0.105569 42.458935
v -110.276581 -0.105569 36.240784
v -116.494720 -0.105569 28.663946
v -121.115211 -0.105569 20.019602
v -123.960487 -0.105569 10.639939
v -124.921227 -0.105569 0.885419
v -123.960472 -0.105569 -8.869102
v -121.115181 -0.105569 -18.248758
v -116.494667 -0.105569 -26.893097
v -110.276512 -0.105569 -34.469913
v -102.699677 -0.105569 -40.688049
v -94.055321 -0.105569 -45.308533
v -86.774857 -0.105569 -48.153805
v -74.921219 4.894431 -49.114529
v -74.921234 4.894431 50.885471
v -86.417839 4.894431 49.924732
v -94.055412 4.894431 47.079433
v -102.699760 4.894431 42.458935
v -110.276581 4.894431 36.240784
v -116.494720 4.894431 28.663946
v -121.115211 4.894431 20.019602
v -123.960487 4.894431 10.639939
v -124.921227 4.894431 0.885419
v -123.960472 4.894431 -8.869102
v -121.115181 4.894431 -18.248758
v -116.494667 4.894431 -26.893097
v -110.276512 4.894431 -34.469913
v -102.699677 4.894431 -40.688049
v -94.055321 4.894431 -45.308533
v -86.774857 4.894431 -48.153805
v 0.078781 4.894431 -49.114529
v 2.078766 4.894431 50.885471
v 2.078766 4.894431 52.885471
v 0.078766 4.894431 50.885471
v -72.921219 -0.105569 -49.114529
v -72.921234 -0.105569 50.885471
v 2.078781 -0.105569 -49.114529
v 2.078766 -0.105569 50.885471
v 0.078766 -0.105569 50.885471
v 0.078781 -0.105569 -49.114529
v -82.675758 -0.105569 49.924732
v -92.055412 -0.105569 47.079433
v -100.699760 -0.105569 42.458935
v -108.276581 -0.105569 36.240784
v -114.494720 -0.105569 28.663946
v -119.115211 -0.105569 20.019602
v -121.960487 -0.105569 10.639939
v -122.921227 -0.105569 0.885419
v -121.960472 -0.105569 -8.869102
v -119.115181 -0.105569 -18.248758
v -114.494667 -0.105569 -26.893097
v -108.276512 -0.105569 -34.469913
v -100.699677 -0.105569 -40.688049
v -92.055321 -0.105569 -45.308533
v -82.675667 -0.105569 -48.153805
v -72.921219 -0.105569 -49.114529
v -72.921234 -0.105569 50.885471
vt 0.692402 0.591434
vt 0.702771 0.598262
vt 0.318888 0.596848
vt 0.309134 0.603964
vt 0.471856 0.857282
vt 0.437711 0.842974
vt 0.687959 0.645107
vt 0.354032 0.747136
vt 0.335865 0.701055
vt 0.323963 0.650350
vt 0.377701 0.786995
vt 0.405945 0.819293
vt 0.507177 0.861768
vt 0.542443 0.856291
vt 0.576424 0.841023
vt 0.607922 0.816443
vt 0.635799 0.783339
vt 0.659012 0.742795
vt 0.676648 0.696176
vt 0.314546 0.660280
vt 0.327141 0.713616
vt 0.346319 0.762059
vt 0.371272 0.803937
vt 0.401021 0.837855
vt 0.434460 0.862715
vt 0.470390 0.877733
vt 0.507551 0.882440
vt 0.544654 0.876692
vt 0.580414 0.860667
vt 0.613574 0.834863
vt 0.642941 0.800096
vt 0.667419 0.757496
vt 0.686043 0.708485
vt 0.698020 0.654763
vt 0.699327 0.167131
vt 0.710643 0.150235
vt 0.295976 0.156563
vt 0.699527 0.154902
vt 0.710871 0.137286
vt 0.306585 0.160894
vt 0.295596 0.143631
vt 0.707391 0.154782
vt 0.719183 0.137159
vt 0.287297 0.143758
vt 0.298732 0.161014
vt 0.306930 0.173107
vt 0.699877 0.591326
vt 0.710649 0.598148
vt 0.301267 0.604078
vt 0.311423 0.596957
vt 0.507239 0.872118
vt 0.542460 0.866655
vt 0.324529 0.670714
vt 0.336151 0.711819
vt 0.576397 0.851426
vt 0.354293 0.757781
vt 0.607855 0.826909
vt 0.377930 0.797537
vt 0.635696 0.793890
vt 0.406136 0.829752
vt 0.658878 0.753450
vt 0.437862 0.853372
vt 0.676490 0.706953
vt 0.471963 0.867644
vt 0.687604 0.667437
vt 0.319200 0.607885
vt 0.692221 0.602485
vt 0.346604 0.773244
vt 0.327454 0.724934
vt 0.507615 0.893301
vt 0.470504 0.888606
vt 0.667267 0.768694
vt 0.642823 0.811179
vt 0.315166 0.681704
vt 0.309476 0.615584
vt 0.434623 0.873629
vt 0.401229 0.848835
vt 0.613496 0.845851
vt 0.580380 0.871586
vt 0.702566 0.609898
vt 0.697618 0.678257
vt 0.371521 0.815009
vt 0.544669 0.887568
vt 0.685864 0.719817
vn 0.000000 0.000000 1.000000
vn 0.000000 1.000000 -0.000000
vn 0.098000 0.000000 -0.995200
vn 0.290300 0.000000 -0.956900
vn 0.471400 0.000000 -0.881900
vn 0.634400 0.000000 -0.773000
vn 0.773000 0.000000 -0.634400
vn 0.881900 0.000000 -0.471400
vn 0.956900 0.000000 -0.290300
vn 0.995200 0.000000 -0.098000
vn 0.995200 0.000000 0.098000
vn 0.956900 0.000000 0.290300
vn 0.881900 0.000000 0.471400
vn 0.773000 0.000000 0.634400
vn 0.634400 0.000000 0.773000
vn 0.471400 0.000000 0.881900
vn 0.098000 0.000000 0.995200
vn 0.290300 0.000000 0.956900
vn 0.000000 0.000000 -1.000000
vn 1.000000 0.000000 0.000000
vn 0.000000 -1.000000 0.000000
vn -0.080800 0.000000 -0.996700
vn -0.364000 0.000000 -0.931400
vn -0.471400 0.000000 -0.881900
vn -0.634400 0.000000 -0.773000
vn -0.773000 0.000000 -0.634400
vn -0.881900 0.000000 -0.471400
vn -0.956900 0.000000 -0.290300
vn -0.995200 0.000000 -0.098000
vn -0.995200 0.000000 0.098000
vn -0.956900 0.000000 0.290300
vn -0.881900 0.000000 0.471400
vn -0.773000 0.000000 0.634400
vn -0.634400 0.000000 0.773000
vn -0.471400 0.000000 0.881900
vn -0.349100 0.000000 0.937100
vn -0.083300 0.000000 0.996500
vn -0.214300 0.000000 0.976800
vn -0.209000 0.000000 -0.977900
vn -1.000000 0.000000 -0.000000
usemtl Material.001
s off
f 1/1/1 24/1/1 23/2/1
f 25/3/1 21/3/1 24/1/1
f 26/4/1 19/4/1 21/3/1
f 39/5/2 37/6/2 55/7/2
f 31/8/2 29/9/2 27/10/2
f 33/11/2 31/8/2 27/10/2
f 35/12/2 33/11/2 27/10/2
f 37/6/2 35/12/2 27/10/2
f 55/7/2 37/6/2 27/10/2
f 41/13/2 39/5/2 55/7/2
f 43/14/2 41/13/2 55/7/2
f 45/15/2 43/14/2 55/7/2
f 47/16/2 45/15/2 55/7/2
f 49/17/2 47/16/2 55/7/2
f 51/18/2 49/17/2 55/7/2
f 53/19/2 51/18/2 55/7/2
f 27/10/3 28/20/3 26/4/3
f 29/9/4 30/21/4 28/20/4
f 31/8/5 32/22/5 30/21/5
f 33/11/6 34/23/6 32/22/6
f 35/12/7 36/24/7 34/23/7
f 37/6/8 38/25/8 36/24/8
f 39/5/9 40/26/9 38/25/9
f 41/13/10 42/27/10 40/26/10
f 43/14/11 44/28/11 42/27/11
f 45/15/12 46/29/12 44/28/12
f 47/16/13 48/30/13 46/29/13
f 49/17/14 50/31/14 48/30/14
f 51/18/15 52/32/15 50/31/15
f 53/19/16 54/33/16 52/32/16
f 1/1/17 2/2/17 56/34/17
f 55/7/18 56/34/18 54/33/18
f 25/3/2 1/1/2 55/7/2
f 24/1/1 69/35/1 70/36/1
f 73/3/19 74/4/19 67/37/19
f 18/38/1 11/38/1 9/39/1
f 11/38/1 5/38/1 7/39/1
f 5/38/1 4/38/1 57/39/1
f 16/40/1 15/41/1 59/41/1
f 14/38/1 16/40/1 60/40/1
f 61/42/20 62/43/20 57/39/20
f 59/41/20 63/44/20 64/45/20
f 60/40/19 66/46/19 65/37/19
f 65/37/1 66/46/1 68/46/1
f 70/36/1 69/35/1 4/38/1
f 24/1/20 72/47/20 71/48/20
f 26/4/1 74/4/1 73/3/1
f 76/49/20 75/50/20 73/3/20
f 27/10/1 25/3/1 78/3/1
f 35/12/1 83/12/1 84/6/1
f 45/15/1 88/15/1 89/16/1
f 1/1/1 55/7/1 93/7/1
f 31/8/1 81/8/1 82/11/1
f 41/13/1 86/13/1 87/14/1
f 51/18/1 91/18/1 92/19/1
f 27/10/1 79/10/1 80/9/1
f 37/6/1 84/6/1 85/5/1
f 47/16/1 89/16/1 90/17/1
f 33/11/1 82/11/1 83/12/1
f 43/14/1 87/14/1 88/15/1
f 53/19/1 92/19/1 93/7/1
f 29/9/1 80/9/1 81/8/1
f 39/5/1 85/5/1 86/13/1
f 49/17/1 90/17/1 91/18/1
f 86/13/21 103/51/21 104/52/21
f 96/53/21 97/54/21 80/9/21
f 87/14/21 104/52/21 105/55/21
f 97/54/21 98/56/21 81/8/21
f 88/15/21 105/55/21 106/57/21
f 98/56/21 99/58/21 82/11/21
f 89/16/21 106/57/21 107/59/21
f 99/58/21 100/60/21 83/12/21
f 90/17/21 107/59/21 108/61/21
f 100/60/21 101/62/21 84/6/21
f 91/18/21 108/61/21 109/63/21
f 101/62/21 102/64/21 85/5/21
f 92/19/21 109/63/21 110/65/21
f 102/64/21 103/51/21 86/13/21
f 79/10/21 78/3/21 95/66/21
f 93/7/21 110/65/21 94/67/21
f 32/22/2 115/68/2 114/69/2
f 42/27/2 120/70/2 119/71/2
f 125/72/2 124/73/2 50/31/2
f 28/20/2 113/74/2 112/75/2
f 38/25/2 118/76/2 117/77/2
f 123/78/2 122/79/2 46/29/2
f 111/80/2 127/81/2 56/34/2
f 34/23/2 116/82/2 115/68/2
f 121/83/2 120/70/2 42/27/2
f 126/84/2 125/72/2 52/32/2
f 30/21/2 114/69/2 113/74/2
f 40/26/2 119/71/2 118/76/2
f 124/73/2 123/78/2 48/30/2
f 36/24/2 117/77/2 116/82/2
f 122/79/2 121/83/2 44/28/2
f 127/81/2 126/84/2 54/33/2
f 110/65/22 127/81/22 111/80/22
f 109/63/23 126/84/23 127/81/23
f 108/61/24 125/72/24 126/84/24
f 107/59/25 124/73/25 125/72/25
f 106/57/26 123/78/26 124/73/26
f 105/55/27 122/79/27 123/78/27
f 104/52/28 121/83/28 122/79/28
f 103/51/29 120/70/29 121/83/29
f 102/64/30 119/71/30 120/70/30
f 101/62/31 118/76/31 119/71/31
f 100/60/32 117/77/32 118/76/32
f 99/58/33 116/82/33 117/77/33
f 98/56/34 115/68/34 116/82/34
f 97/54/35 114/69/35 115/68/35
f 96/53/36 113/74/36 114/69/36
f 95/66/37 112/75/37 113/74/37
f 76/49/38 113/74/38 96/53/38
f 110/65/39 127/81/39 71/48/39
f 71/48/2 127/81/2 56/34/2
f 76/49/2 74/4/2 28/20/2
f 76/49/1 75/50/1 64/45/1
f 130/44/2 129/41/2 74/4/2
f 61/42/19 72/47/19 71/48/19
f 62/43/2 71/48/2 23/2/2
f 67/37/40 70/36/40 69/35/40
f 4/38/20 57/39/20 59/41/20
f 15/41/1 129/41/1 130/44/1
f 128/36/2 131/37/2 129/41/2
f 75/50/21 96/53/21 79/10/21
f 93/7/21 110/65/21 72/47/21
f 4/38/1 60/40/1 135/40/1
f 25/3/1 1/1/1 132/1/1
f 132/1/2 133/3/2 68/46/2
f 91/18/1 92/19/1 151/19/1
f 84/6/1 85/5/1 144/5/1
f 92/19/1 93/7/1 152/7/1
f 85/5/1 86/13/1 145/13/1
f 86/13/1 87/14/1 146/14/1
f 79/10/1 80/9/1 139/9/1
f 87/14/1 88/15/1 147/15/1
f 80/9/1 81/8/1 140/8/1
f 88/15/1 89/16/1 148/16/1
f 132/1/1 69/35/1 137/35/1
f 81/8/1 82/11/1 141/11/1
f 89/16/1 90/17/1 149/17/1
f 68/46/1 133/3/1 154/3/1
f 82/11/1 83/12/1 142/12/1
f 69/35/1 68/46/1 136/46/1
f 90/17/1 91/18/1 150/18/1
f 83/12/1 84/6/1 143/6/1
f 2/2/1 1/1/1 23/2/1
f 1/1/1 25/3/1 24/1/1
f 25/3/1 26/4/1 21/3/1
f 25/3/3 27/10/3 26/4/3
f 27/10/4 29/9/4 28/20/4
f 29/9/5 31/8/5 30/21/5
f 31/8/6 33/11/6 32/22/6
f 33/11/7 35/12/7 34/23/7
f 35/12/8 37/6/8 36/24/8
f 37/6/9 39/5/9 38/25/9
f 39/5/10 41/13/10 40/26/10
f 41/13/11 43/14/11 42/27/11
f 43/14/12 45/15/12 44/28/12
f 45/15/13 47/16/13 46/29/13
f 47/16/14 49/17/14 48/30/14
f 49/17/15 51/18/15 50/31/15
f 51/18/16 53/19/16 52/32/16
f 55/7/17 1/1/17 56/34/17
f 53/19/18 55/7/18 54/33/18
f 27/10/2 25/3/2 55/7/2
f 23/2/1 24/1/1 70/36/1
f 68/46/19 73/3/19 67/37/19
f 20/39/1 18/38/1 9/39/1
f 9/39/1 11/38/1 7/39/1
f 7/39/1 5/38/1 57/39/1
f 60/40/1 16/40/1 59/41/1
f 58/38/1 14/38/1 60/40/1
f 4/38/20 61/42/20 57/39/20
f 60/40/20 59/41/20 64/45/20
f 59/41/19 60/40/19 65/37/19
f 67/37/1 65/37/1 68/46/1
f 57/39/1 70/36/1 4/38/1
f 23/2/20 24/1/20 71/48/20
f 25/3/1 26/4/1 73/3/1
f 74/4/20 76/49/20 73/3/20
f 79/10/1 27/10/1 78/3/1
f 37/6/1 35/12/1 84/6/1
f 47/16/1 45/15/1 89/16/1
f 77/1/1 1/1/1 93/7/1
f 33/11/1 31/8/1 82/11/1
f 43/14/1 41/13/1 87/14/1
f 53/19/1 51/18/1 92/19/1
f 29/9/1 27/10/1 80/9/1
f 39/5/1 37/6/1 85/5/1
f 49/17/1 47/16/1 90/17/1
f 35/12/1 33/11/1 83/12/1
f 45/15/1 43/14/1 88/15/1
f 55/7/1 53/19/1 93/7/1
f 31/8/1 29/9/1 81/8/1
f 41/13/1 39/5/1 86/13/1
f 51/18/1 49/17/1 91/18/1
f 87/14/21 86/13/21 104/52/21
f 79/10/21 96/53/21 80/9/21
f 88/15/21 87/14/21 105/55/21
f 80/9/21 97/54/21 81/8/21
f 89/16/21 88/15/21 106/57/21
f 81/8/21 98/56/21 82/11/21
f 90/17/21 89/16/21 107/59/21
f 82/11/21 99/58/21 83/12/21
f 91/18/21 90/17/21 108/61/21
f 83/12/21 100/60/21 84/6/21
f 92/19/21 91/18/21 109/63/21
f 84/6/21 101/62/21 85/5/21
f 93/7/21 92/19/21 110/65/21
f 85/5/21 102/64/21 86/13/21
f 96/53/21 79/10/21 95/66/21
f 77/1/21 93/7/21 94/67/21
f 30/21/2 32/22/2 114/69/2
f 40/26/2 42/27/2 119/71/2
f 52/32/2 125/72/2 50/31/2
f 26/4/2 28/20/2 112/75/2
f 36/24/2 38/25/2 117/77/2
f 48/30/2 123/78/2 46/29/2
f 2/2/2 111/80/2 56/34/2
f 32/22/2 34/23/2 115/68/2
f 44/28/2 121/83/2 42/27/2
f 54/33/2 126/84/2 52/32/2
f 28/20/2 30/21/2 113/74/2
f 38/25/2 40/26/2 118/76/2
f 50/31/2 124/73/2 48/30/2
f 34/23/2 36/24/2 116/82/2
f 46/29/2 122/79/2 44/28/2
f 56/34/2 127/81/2 54/33/2
f 94/67/22 110/65/22 111/80/22
f 110/65/23 109/63/23 127/81/23
f 109/63/24 108/61/24 126/84/24
f 108/61/25 107/59/25 125/72/25
f 107/59/26 106/57/26 124/73/26
f 106/57/27 105/55/27 123/78/27
f 105/55/28 104/52/28 122/79/28
f 104/52/29 103/51/29 121/83/29
f 103/51/30 102/64/30 120/70/30
f 102/64/31 101/62/31 119/71/31
f 101/62/32 100/60/32 118/76/32
f 100/60/33 99/58/33 117/77/33
f 99/58/34 98/56/34 116/82/34
f 98/56/35 97/54/35 115/68/35
f 97/54/36 96/53/36 114/69/36
f 96/53/37 95/66/37 113/74/37
f 75/50/38 76/49/38 96/53/38
f 72/47/39 110/65/39 71/48/39
f 23/2/2 71/48/2 56/34/2
f 113/74/2 76/49/2 28/20/2
f 63/44/1 76/49/1 64/45/1
f 76/49/2 130/44/2 74/4/2
f 62/43/19 61/42/19 71/48/19
f 57/39/2 62/43/2 23/2/2
f 68/46/40 67/37/40 69/35/40
f 60/40/20 4/38/20 59/41/20
f 63/44/1 15/41/1 130/44/1
f 57/39/2 128/36/2 129/41/2
f 73/3/21 75/50/21 79/10/21
f 24/1/21 93/7/21 72/47/21
f 134/38/1 4/38/1 135/40/1
f 133/3/1 25/3/1 132/1/1
f 69/35/2 132/1/2 68/46/2
f 150/18/1 91/18/1 151/19/1
f 143/6/1 84/6/1 144/5/1
f 151/19/1 92/19/1 152/7/1
f 144/5/1 85/5/1 145/13/1
f 145/13/1 86/13/1 146/14/1
f 138/10/1 79/10/1 139/9/1
f 146/14/1 87/14/1 147/15/1
f 139/9/1 80/9/1 140/8/1
f 147/15/1 88/15/1 148/16/1
f 153/1/1 132/1/1 137/35/1
f 140/8/1 81/8/1 141/11/1
f 148/16/1 89/16/1 149/17/1
f 136/46/1 68/46/1 154/3/1
f 141/11/1 82/11/1 142/12/1
f 137/35/1 69/35/1 136/46/1
f 149/17/1 90/17/1 150/18/1
f 142/12/1 83/12/1 143/6/1
f 60/40/1 25/3/1 133/3/1
f 1/1/1 4/38/1 134/38/1
f 135/40/1 60/40/1 133/3/1
f 132/1/1 1/1/1 134/38/1
