# Blender v2.76 (sub 0) OBJ File: 'trianglethingy4.blend'
# www.blender.org
mtllib paddlebumper2.mtl
o Bumper_Cylinder.001
v 0.000000 -1.000000 1.000000
v 0.000000 1.000000 1.000000
v -0.195091 1.000000 0.980785
v -0.195091 -1.000000 0.980785
v -0.382684 1.000000 0.923879
v -0.382684 -1.000000 0.923879
v -0.555571 1.000000 0.831469
v -0.555571 -1.000000 0.831469
v -0.707107 1.000000 0.707106
v -0.707107 -1.000000 0.707106
v -0.831470 1.000000 0.555570
v -0.831470 -1.000000 0.555570
v -0.923880 1.000000 0.382683
v -0.923880 -1.000000 0.382683
v -0.980785 1.000000 0.195089
v -0.980785 -1.000000 0.195089
v -1.000000 1.000000 -0.000001
v -1.000000 -1.000000 -0.000001
v -0.980785 1.000000 -0.195091
v -0.980785 -1.000000 -0.195091
v -0.923879 1.000000 -0.382684
v -0.923879 -1.000000 -0.382684
v -0.831469 1.000000 -0.555571
v -0.831469 -1.000000 -0.555571
v -0.707106 1.000000 -0.707108
v -0.707106 -1.000000 -0.707108
v -0.555569 1.000000 -0.868163
v -0.555569 -1.000000 -0.868163
v -0.308293 0.995867 -1.058064
v -0.308293 -1.004133 -1.058064
v -0.161762 -1.004133 -1.133078
v -0.161762 0.995867 -1.133078
v 0.007358 0.995867 -1.232212
v 0.007358 -1.004133 -1.232212
v 2.784542 -1.000000 1.000000
v 2.784542 1.000000 1.000000
v 2.784542 -1.000000 1.000000
v 2.784542 1.000000 1.000000
v 5.248067 -0.922507 -2.928611
v 5.248067 1.077493 -2.928611
vt 0.625020 0.181080
vt 0.596038 0.328050
vt 0.584520 0.320622
vt 0.575564 0.316885
vt 0.605200 0.160795
vt 0.566036 0.315291
vt 0.595746 0.146703
vt 0.555984 0.315699
vt 0.585180 0.128308
vt 0.545107 0.317920
vt 0.571141 0.124086
vt 0.533289 0.321962
vt 0.557056 0.120303
vt 0.520356 0.327880
vt 0.542915 0.116805
vt 0.506564 0.324563
vt 0.529122 0.113489
vt 0.492771 0.321246
vt 0.515330 0.110172
vt 0.478978 0.317930
vt 0.501537 0.106855
vt 0.465186 0.314613
vt 0.487744 0.103539
vt 0.451393 0.311296
vt 0.473952 0.100222
vt 0.435834 0.307555
vt 0.458393 0.096480
vt 0.413945 0.301844
vt 0.402362 0.299059
vt 0.388570 0.295742
vt 0.411128 0.084667
vt 0.424921 0.087984
vt 0.752380 0.263905
vt 0.686743 0.402911
vt 0.688185 0.412170
vt 0.755902 0.261904
vt 0.759690 0.259664
vt 0.688894 0.416852
vt 0.999914 0.511970
vt 0.000086 0.211161
vt 0.022644 0.000086
vt 0.687592 0.407933
vt 0.961579 0.733502
vt 0.994263 0.814056
vt 0.955886 0.723247
vt 0.952631 0.719919
vt 0.947402 0.716391
vt 0.942759 0.715574
vt 0.938651 0.716371
vt 0.935085 0.719163
vt 0.931782 0.723136
vt 0.994027 0.816282
vt 0.928622 0.727448
vt 0.927074 0.733662
vt 0.926386 0.740308
vt 0.925921 0.747798
vt 0.952303 0.971363
vt 0.926467 0.777203
vt 0.925543 0.758957
vt 0.925857 0.764263
vt 0.926068 0.753855
vt 0.891064 0.967036
vt 0.844010 0.811542
vt 0.907692 0.773501
vt 0.907362 0.762008
vt 0.907054 0.751420
vt 0.906752 0.742621
vt 0.905536 0.737197
vt 0.904201 0.731722
vt 0.902487 0.727121
vt 0.897383 0.718926
vt 0.894199 0.716683
vt 0.890619 0.715035
vt 0.887910 0.715311
vt 0.884094 0.717100
vt 0.879940 0.719194
vt 0.843734 0.809512
vt 0.876245 0.723103
vt 0.873384 0.726989
vt 0.843496 0.807629
vt 0.870561 0.731843
vt 0.899476 0.722308
vt 0.614183 0.171268
vt 0.436503 0.090769
vt 0.598142 0.326789
vt 0.929119 0.669158
vn -0.098000 -0.000000 0.995200
vn -0.290300 -0.000000 0.956900
vn -0.471400 -0.000000 0.881900
vn -0.634400 -0.000000 0.773000
vn -0.773000 -0.000000 0.634400
vn -0.881900 0.000000 0.471400
vn -0.956900 0.000000 0.290300
vn -0.995200 0.000000 0.098000
vn -0.995200 0.000000 -0.098000
vn -0.956900 0.000000 -0.290300
vn -0.881900 0.000000 -0.471400
vn -0.773000 0.000000 -0.634400
vn -0.728300 0.000000 -0.685300
vn -0.609100 0.000000 -0.793100
vn -0.505700 0.000000 -0.862700
vn -0.455700 0.000000 -0.890100
vn 0.000000 -0.000000 1.000000
vn 0.847200 0.000000 0.531300
vn -0.308000 0.000000 -0.951400
vn 0.000000 1.000000 0.000000
vn -0.011500 0.999900 0.012500
vn -0.000600 1.000000 -0.001100
vn 0.007000 0.999900 -0.012600
vn 0.011500 -0.999900 -0.012500
vn 0.000600 -1.000000 0.001100
vn -0.007000 -0.999900 0.012600
vn 0.000000 -1.000000 -0.000000
s 1
f 1/1/1 2/2/1 3/3/1
f 3/3/2 5/4/2 6/5/2
f 5/4/3 7/6/3 8/7/3
f 7/6/4 9/8/4 10/9/4
f 9/8/5 11/10/5 12/11/5
f 11/10/6 13/12/6 14/13/6
f 13/12/7 15/14/7 16/15/7
f 15/14/8 17/16/8 18/17/8
f 17/16/9 19/18/9 20/19/9
f 19/18/10 21/20/10 22/21/10
f 21/20/11 23/22/11 24/23/11
f 23/22/12 25/24/12 26/25/12
f 25/24/13 27/26/13 28/27/13
f 28/27/14 27/26/14 29/28/14
f 32/29/15 33/30/15 34/31/15
f 29/28/16 32/29/16 31/32/16
f 1/1/17 35/33/17 36/34/17
f 36/35/17 35/36/17 37/37/17
f 38/38/18 37/37/18 39/39/18
f 33/30/19 40/40/19 39/41/19
f 2/2/20 36/42/20 3/3/20
f 3/43/20 36/44/20 5/45/20
f 5/45/20 36/44/20 7/46/20
f 7/46/20 36/44/20 9/47/20
f 9/47/20 36/44/20 11/48/20
f 11/48/20 36/44/20 13/49/20
f 13/49/20 36/44/20 15/50/20
f 15/14/17 36/35/17 38/38/17
f 17/51/20 38/52/20 19/53/20
f 19/53/20 38/52/20 21/54/20
f 21/54/20 38/52/20 23/55/20
f 23/55/20 38/52/20 25/56/20
f 38/52/21 40/57/21 33/58/21
f 29/59/22 38/52/22 32/60/22
f 32/60/22 38/52/22 33/58/22
f 17/51/20 15/50/20 38/52/20
f 25/56/20 38/52/20 27/61/20
f 29/59/23 27/61/23 38/52/23
f 39/62/24 37/63/24 34/64/24
f 37/63/25 31/65/25 34/64/25
f 37/63/25 30/66/25 31/65/25
f 37/63/26 28/67/26 30/66/26
f 37/63/27 26/68/27 28/67/27
f 37/63/27 24/69/27 26/68/27
f 37/63/27 22/70/27 24/69/27
f 18/71/27 37/63/27 16/72/27
f 16/72/27 37/63/27 14/73/27
f 14/73/27 37/63/27 12/74/27
f 12/74/27 37/63/27 10/75/27
f 10/9/17 37/37/17 35/36/17
f 8/76/27 35/77/27 6/78/27
f 6/78/27 35/77/27 4/79/27
f 4/79/27 35/80/27 1/81/27
f 18/71/27 20/82/27 37/63/27
f 8/76/27 10/75/27 35/77/27
f 37/63/27 20/82/27 22/70/27
f 4/83/1 1/1/1 3/3/1
f 4/83/2 3/3/2 6/5/2
f 6/5/3 5/4/3 8/7/3
f 8/7/4 7/6/4 10/9/4
f 10/9/5 9/8/5 12/11/5
f 12/11/6 11/10/6 14/13/6
f 14/13/7 13/12/7 16/15/7
f 16/15/8 15/14/8 18/17/8
f 18/17/9 17/16/9 20/19/9
f 20/19/10 19/18/10 22/21/10
f 22/21/11 21/20/11 24/23/11
f 24/23/12 23/22/12 26/25/12
f 26/25/13 25/24/13 28/27/13
f 30/84/14 28/27/14 29/28/14
f 31/32/15 32/29/15 34/31/15
f 30/84/16 29/28/16 31/32/16
f 2/85/17 1/1/17 36/34/17
f 38/38/17 36/35/17 37/37/17
f 40/86/18 38/38/18 39/39/18
f 34/31/19 33/30/19 39/41/19
