# Blender v2.76 (sub 0) OBJ File: 'trianglethingy4.blend'
# www.blender.org
o Bumper_Cylinder.001
v 0.000000 -1.000000 1.000000
v 0.000000 1.000000 1.000000
v -0.195091 1.000000 0.980785
v -0.195091 -1.000000 0.980785
v -0.382684 1.000000 0.923879
v -0.382684 -1.000000 0.923879
v -0.555571 1.000000 0.831469
v -0.555571 -1.000000 0.831469
v -0.707107 1.000000 0.707106
v -0.707107 -1.000000 0.707106
v -0.831470 1.000000 0.555570
v -0.831470 -1.000000 0.555570
v -0.923880 1.000000 0.382683
v -0.923880 -1.000000 0.382683
v -0.980785 1.000000 0.195089
v -0.980785 -1.000000 0.195089
v -1.000000 1.000000 -0.000001
v -1.000000 -1.000000 -0.000001
v -0.980785 1.000000 -0.195091
v -0.980785 -1.000000 -0.195091
v -0.923879 1.000000 -0.382684
v -0.923879 -1.000000 -0.382684
v -0.831469 1.000000 -0.555571
v -0.831469 -1.000000 -0.555571
v -0.707106 1.000000 -0.707108
v -0.707106 -1.000000 -0.707108
v -0.555569 1.000000 -0.868163
v -0.555569 -1.000000 -0.868163
v -0.308293 0.995867 -1.058064
v -0.308293 -1.004133 -1.058064
v -0.161762 -1.004133 -1.133078
v -0.161762 0.995867 -1.133078
v 0.007358 0.995867 -1.232212
v 0.007358 -1.004133 -1.232212
v 2.784542 -1.000000 1.000000
v 2.784542 1.000000 1.000000
v 2.784542 -1.000000 1.000000
v 2.784542 1.000000 1.000000
v 5.248067 -0.922507 -2.928611
v 5.248067 1.077493 -2.928611
vt 0.607726 0.202319
vt 0.582753 0.328959
vt 0.572829 0.322559
vt 0.565112 0.319338
vt 0.590648 0.184841
vt 0.556901 0.317965
vt 0.582502 0.172698
vt 0.548240 0.318317
vt 0.573397 0.156847
vt 0.538867 0.320230
vt 0.561300 0.153210
vt 0.528684 0.323713
vt 0.549164 0.149949
vt 0.517540 0.328812
vt 0.536979 0.146936
vt 0.505656 0.325955
vt 0.525094 0.144078
vt 0.493771 0.323097
vt 0.513209 0.141220
vt 0.481886 0.320239
vt 0.501324 0.138362
vt 0.470002 0.317381
vt 0.489440 0.135504
vt 0.458117 0.314523
vt 0.477555 0.132646
vt 0.444710 0.311299
vt 0.464148 0.129422
vt 0.425849 0.306378
vt 0.415869 0.303978
vt 0.403984 0.301120
vt 0.423422 0.119244
vt 0.435307 0.122101
vt 0.717469 0.273687
vt 0.660911 0.393465
vt 0.662153 0.401443
vt 0.720503 0.271963
vt 0.723767 0.270033
vt 0.662765 0.405477
vt 0.930761 0.487437
vt 0.069239 0.228239
vt 0.088677 0.046362
vt 0.661643 0.397792
vt 0.961579 0.733502
vt 0.994263 0.814056
vt 0.955886 0.723247
vt 0.952631 0.719919
vt 0.947402 0.716391
vt 0.942759 0.715574
vt 0.938651 0.716371
vt 0.935085 0.719163
vt 0.931782 0.723136
vt 0.994027 0.816282
vt 0.928622 0.727448
vt 0.927074 0.733662
vt 0.926386 0.740308
vt 0.925921 0.747798
vt 0.952303 0.971363
vt 0.926467 0.777203
vt 0.925543 0.758957
vt 0.925857 0.764263
vt 0.926068 0.753855
vt 0.891064 0.967036
vt 0.844010 0.811542
vt 0.907692 0.773501
vt 0.907362 0.762008
vt 0.907054 0.751420
vt 0.906752 0.742621
vt 0.905536 0.737197
vt 0.904201 0.731722
vt 0.902487 0.727121
vt 0.897383 0.718926
vt 0.894199 0.716683
vt 0.890619 0.715035
vt 0.887910 0.715311
vt 0.884094 0.717100
vt 0.879940 0.719194
vt 0.843734 0.809512
vt 0.876245 0.723103
vt 0.873384 0.726989
vt 0.843496 0.807629
vt 0.870561 0.731843
vt 0.899476 0.722308
vt 0.598389 0.193865
vt 0.445287 0.124501
vt 0.584566 0.327872
vt 0.869759 0.622882
vn -0.035200 -0.696200 0.717000
vn -0.035200 0.696200 0.717000
vn -0.142000 0.685700 0.713900
vn -0.278600 0.685700 0.672500
vn -0.278600 -0.685700 0.672500
vn -0.404400 0.685700 0.605200
vn -0.404400 -0.685700 0.605200
vn -0.514700 0.685700 0.514700
vn -0.514700 -0.685700 0.514800
vn -0.605200 0.685700 0.404400
vn -0.605200 -0.685700 0.404400
vn -0.672500 0.685700 0.278500
vn -0.672500 -0.685700 0.278500
vn -0.713900 0.685700 0.142000
vn -0.713900 -0.685700 0.142000
vn -0.727900 0.685700 -0.000000
vn -0.727900 -0.685700 0.000000
vn -0.713900 0.685700 -0.142000
vn -0.713900 -0.685700 -0.142000
vn -0.672500 0.685700 -0.278600
vn -0.672500 -0.685700 -0.278600
vn -0.605200 0.685700 -0.404400
vn -0.605200 -0.685700 -0.404400
vn -0.536700 0.699600 -0.471800
vn -0.536700 -0.699600 -0.471800
vn -0.482800 0.690300 -0.538800
vn -0.489100 -0.688500 -0.535500
vn -0.385500 0.684000 -0.619300
vn -0.337100 0.713100 -0.614700
vn -0.302200 0.682300 -0.665700
vn -0.295200 -0.684700 -0.666300
vn -0.336700 -0.714000 -0.613800
vn 0.000000 -0.017800 0.999800
vn 0.000000 0.044600 0.999000
vn 0.287000 -0.440800 0.850500
vn 0.286800 0.414400 0.863700
vn 0.665500 -0.536800 -0.518600
vn 0.657400 0.552800 -0.512000
vn -0.391300 -0.690400 -0.608500
vn -0.142000 -0.685700 0.713900
s 1
f 1/1/1 2/2/2 3/3/3
f 3/3/3 5/4/4 6/5/5
f 5/4/4 7/6/6 8/7/7
f 7/6/6 9/8/8 10/9/9
f 9/8/8 11/10/10 12/11/11
f 11/10/10 13/12/12 14/13/13
f 13/12/12 15/14/14 16/15/15
f 15/14/14 17/16/16 18/17/17
f 17/16/16 19/18/18 20/19/19
f 19/18/18 21/20/20 22/21/21
f 21/20/20 23/22/22 24/23/23
f 23/22/22 25/24/24 26/25/25
f 25/24/24 27/26/26 28/27/27
f 28/27/27 27/26/26 29/28/28
f 32/29/29 33/30/30 34/31/31
f 29/28/28 32/29/29 31/32/32
f 1/1/1 35/33/33 36/34/34
f 36/35/34 35/36/33 37/37/35
f 38/38/36 37/37/35 39/39/37
f 33/30/30 40/40/38 39/41/37
f 2/2/2 36/42/34 3/3/3
f 3/43/3 36/44/34 5/45/4
f 5/45/4 36/44/34 7/46/6
f 7/46/6 36/44/34 9/47/8
f 9/47/8 36/44/34 11/48/10
f 11/48/10 36/44/34 13/49/12
f 13/49/12 36/44/34 15/50/14
f 15/14/14 36/35/34 38/38/36
f 17/51/16 38/52/36 19/53/18
f 19/53/18 38/52/36 21/54/20
f 21/54/20 38/52/36 23/55/22
f 23/55/22 38/52/36 25/56/24
f 38/52/36 40/57/38 33/58/30
f 29/59/28 38/52/36 32/60/29
f 32/60/29 38/52/36 33/58/30
f 17/51/16 15/50/14 38/52/36
f 25/56/24 38/52/36 27/61/26
f 29/59/28 27/61/26 38/52/36
f 39/62/37 37/63/35 34/64/31
f 37/63/35 31/65/32 34/64/31
f 37/63/35 30/66/39 31/65/32
f 37/63/35 28/67/27 30/66/39
f 37/63/35 26/68/25 28/67/27
f 37/63/35 24/69/23 26/68/25
f 37/63/35 22/70/21 24/69/23
f 18/71/17 37/63/35 16/72/15
f 16/72/15 37/63/35 14/73/13
f 14/73/13 37/63/35 12/74/11
f 12/74/11 37/63/35 10/75/9
f 10/9/9 37/37/35 35/36/33
f 8/76/7 35/77/33 6/78/5
f 6/78/5 35/77/33 4/79/40
f 4/79/40 35/80/33 1/81/1
f 18/71/17 20/82/19 37/63/35
f 8/76/7 10/75/9 35/77/33
f 37/63/35 20/82/19 22/70/21
f 4/83/40 1/1/1 3/3/3
f 4/83/40 3/3/3 6/5/5
f 6/5/5 5/4/4 8/7/7
f 8/7/7 7/6/6 10/9/9
f 10/9/9 9/8/8 12/11/11
f 12/11/11 11/10/10 14/13/13
f 14/13/13 13/12/12 16/15/15
f 16/15/15 15/14/14 18/17/17
f 18/17/17 17/16/16 20/19/19
f 20/19/19 19/18/18 22/21/21
f 22/21/21 21/20/20 24/23/23
f 24/23/23 23/22/22 26/25/25
f 26/25/25 25/24/24 28/27/27
f 30/84/39 28/27/27 29/28/28
f 31/32/32 32/29/29 34/31/31
f 30/84/39 29/28/28 31/32/32
f 2/85/2 1/1/1 36/34/34
f 38/38/36 36/35/34 37/37/35
f 40/86/38 38/38/36 39/39/37
f 34/31/31 33/30/30 39/41/37
