# Blender v2.76 (sub 0) OBJ File: 'Scoreboard2.blend'
# www.blender.org
mtllib Scoreboard.mtl
o Table
v -22.921234 4.894431 50.885471
v -72.921219 4.894431 -51.114529
v -72.921234 4.894431 52.885471
v -86.417839 4.894431 49.924732
v -94.055412 4.894431 47.079433
v -102.699760 4.894431 42.458935
v -110.276581 4.894431 36.240784
v -116.494720 4.894431 28.663946
v -121.115211 4.894431 20.019602
v -123.960487 4.894431 10.639939
v -124.921227 4.894431 0.885419
v -123.960472 4.894431 -8.869102
v -121.115181 4.894431 -18.248758
v -116.494667 4.894431 -26.893097
v -110.276512 4.894431 -34.469913
v -102.699677 4.894431 -40.688049
v -94.055321 4.894431 -45.308533
v -86.774857 4.894431 -48.153805
v -172.921219 4.894431 -51.114529
v -172.921219 -0.105569 -51.114529
v -172.921234 -0.105569 52.885471
v -172.921234 4.894431 52.885471
v -124.921227 4.894431 52.873009
v -124.921227 4.894431 -51.132530
v -172.921219 40.052502 -51.114529
v -172.921234 40.052502 52.885471
v -158.811707 40.052502 -51.114529
v -158.811722 40.052502 52.885471
v -72.921219 -0.105569 -51.114529
v -72.921234 -0.105264 52.885471
v -86.417839 -0.105264 49.924732
v -94.055412 -0.105264 47.079433
v -102.699760 -0.105264 42.458935
v -110.276581 -0.105264 36.240784
v -116.494720 -0.105264 28.663946
v -121.115211 -0.105264 20.019602
v -123.960487 -0.105264 10.639939
v -124.921227 -0.105264 0.885419
v -123.960472 -0.105264 -8.869102
v -121.115181 -0.105264 -18.248758
v -116.494667 -0.105264 -26.893097
v -110.276512 -0.105264 -34.469913
v -102.699677 -0.105264 -40.688049
v -94.055321 -0.105264 -45.308533
v -86.774857 -0.105264 -48.153805
vt 0.597562 0.000281
vt 0.434116 0.287844
vt 0.434056 0.004293
vt 0.635410 0.004293
vt 0.434056 0.903362
vt 0.836643 0.903362
vt 0.836643 0.932395
vt 0.000281 0.795011
vt 0.000281 0.590864
vt 0.402868 0.590863
vt 0.836643 0.902800
vt 0.434056 0.902800
vt 0.434056 0.820873
vt 0.821157 0.962553
vt 0.821157 0.991583
vt 0.434056 0.991584
vt 0.402868 0.795011
vt 0.836643 0.820873
vt 0.015476 0.505016
vt 0.029525 0.459850
vt 0.046162 0.473420
vt 0.049762 0.412376
vt 0.064651 0.429502
vt 0.075964 0.369950
vt 0.088466 0.391123
vt 0.107265 0.335689
vt 0.116840 0.360134
vt 0.142384 0.311220
vt 0.148651 0.337921
vt 0.179767 0.297340
vt 0.182653 0.325192
vt 0.217700 0.293833
vt 0.217659 0.321684
vt 0.255667 0.297381
vt 0.292992 0.311230
vt 0.286760 0.337840
vt 0.327876 0.335509
vt 0.318453 0.359690
vt 0.358698 0.369390
vt 0.346545 0.389824
vt 0.418372 0.502522
vt 0.387840 0.472117
vt 0.404488 0.458574
vt 0.369678 0.428105
vt 0.384532 0.411338
vt 0.836882 0.004294
vt 0.836703 0.287844
vt 0.673259 0.000281
vt 0.018094 0.590302
vt 0.000281 0.582119
vt 0.033801 0.515540
vt 0.252768 0.325258
vt 0.399797 0.513037
vt 0.415568 0.590302
vt 0.408039 0.001593
vt 0.433494 0.582317
vt 0.054899 0.795572
vt 0.186090 0.999719
vt 0.000281 0.999719
vt 0.405008 0.458138
vt 0.385046 0.410733
vt 0.359131 0.368647
vt 0.328206 0.334649
vt 0.293206 0.310288
vt 0.255761 0.296402
vt 0.217694 0.292853
vt 0.027347 0.000281
vt 0.179660 0.296364
vt 0.142156 0.310281
vt 0.106919 0.334831
vt 0.075516 0.369209
vt 0.049240 0.411781
vt 0.028999 0.459422
vt 0.217059 0.795572
vt 0.402868 0.795572
vt 0.271677 0.999719
vt 0.434056 0.566470
vt 0.434098 0.288406
vt 0.835746 0.288700
vt 0.821157 0.932957
vt 0.821157 0.961989
vt 0.434056 0.961989
vt 0.635349 0.820207
vt 0.434056 0.820311
vt 0.581721 0.803015
vt 0.553539 0.786494
vt 0.520076 0.759665
vt 0.490746 0.723559
vt 0.466675 0.679564
vt 0.448789 0.629370
vt 0.437775 0.574906
vt 0.672582 0.574345
vt 0.634890 0.569246
vt 0.835725 0.566764
vt 0.639550 0.820137
vt 0.635910 0.574906
vt 0.650581 0.765682
vt 0.668484 0.715501
vt 0.692569 0.671524
vt 0.721911 0.635439
vt 0.755382 0.608635
vt 0.784953 0.592135
vt 0.837205 0.574981
vt 0.597174 0.574292
vt 0.434056 0.962551
vt 0.434056 0.932395
vt 0.000281 0.795572
vt 0.217059 0.999719
vt 0.434056 0.932956
vn 0.985600 -0.091700 -0.141800
vn 0.302300 0.716100 0.629100
vn 0.648100 0.598700 0.470600
vn 0.713900 0.700300 0.000000
vn -0.666600 -0.333300 0.666700
vn -0.666700 -0.333300 -0.666600
vn -0.577300 -0.577300 -0.577300
vn -0.577300 0.577300 0.577300
vn -0.577300 0.577300 -0.577300
vn 0.838200 -0.537800 0.090900
vn 0.838400 0.537300 0.090900
vn 0.302200 0.716200 -0.629000
vn 0.195000 -0.723300 -0.662400
vn 0.284200 -0.722500 -0.630200
vn 0.284200 0.722500 -0.630200
vn 0.379800 -0.729800 -0.568400
vn 0.379800 0.729800 -0.568400
vn 0.483400 -0.729800 -0.483400
vn 0.483400 0.729800 -0.483400
vn 0.568400 -0.729800 -0.379800
vn 0.568400 0.729800 -0.379800
vn 0.631600 -0.729800 -0.261600
vn 0.631600 0.729800 -0.261600
vn 0.670500 -0.729800 -0.133300
vn 0.683600 -0.729800 0.000000
vn 0.670500 -0.729800 0.133400
vn 0.631600 -0.729800 0.261600
vn 0.631600 0.729800 0.261600
vn 0.568400 -0.729800 0.379800
vn 0.568400 0.729800 0.379800
vn 0.483400 -0.729800 0.483400
vn 0.483400 0.729800 0.483400
vn 0.197700 -0.725700 0.658900
vn 0.290100 0.720600 0.629700
vn 0.290100 -0.720600 0.629700
vn 0.379800 0.729800 0.568400
vn 0.379800 -0.729800 0.568400
vn 0.647800 0.598900 -0.470800
vn 0.985600 -0.091700 0.141800
vn 0.195000 0.723300 -0.662400
vn 0.197700 0.725800 0.658900
vn 0.838000 0.538300 -0.088500
vn 0.838400 -0.537700 -0.088600
vn -0.577300 -0.577300 0.577300
usemtl Material.001
s 1
f 10/1/1 28/2/2 23/3/3
f 10/1/1 11/4/4 28/2/2
f 22/5/5 19/6/6 20/7/7
f 22/8/5 26/9/8 25/10/9
f 25/11/9 26/12/8 28/13/2
f 30/14/10 3/15/11 22/16/5
f 19/17/6 22/8/5 25/10/9
f 27/18/12 25/11/9 28/13/2
f 31/19/13 32/20/14 5/21/15
f 32/20/14 33/22/16 6/23/17
f 33/22/16 34/24/18 7/25/19
f 34/24/18 35/26/20 8/27/21
f 35/26/20 36/28/22 9/29/23
f 36/28/22 37/30/24 10/31/1
f 37/30/24 38/32/25 11/33/4
f 39/34/26 40/35/27 13/36/28
f 40/35/27 41/37/29 14/38/30
f 41/37/29 42/39/31 15/40/32
f 45/41/33 17/42/34 44/43/35
f 44/43/35 16/44/36 43/45/37
f 43/45/37 15/40/32 42/39/31
f 24/46/38 27/47/12 12/48/39
f 3/49/11 30/50/10 31/19/13
f 4/51/40 31/19/13 5/21/15
f 5/21/15 32/20/14 6/23/17
f 6/23/17 33/22/16 7/25/19
f 7/25/19 34/24/18 8/27/21
f 8/27/21 35/26/20 9/29/23
f 9/29/23 36/28/22 10/31/1
f 12/52/39 39/34/26 13/36/28
f 13/36/28 40/35/27 14/38/30
f 14/38/30 41/37/29 15/40/32
f 18/53/41 17/42/34 45/41/33
f 17/42/34 16/44/36 44/43/35
f 16/44/36 15/40/32 43/45/37
f 38/32/25 39/34/26 12/52/39
f 10/31/1 37/30/24 11/33/4
f 11/33/4 38/32/25 12/52/39
f 2/54/42 18/53/41 45/41/33
f 45/41/33 20/55/7 29/56/43
f 11/4/4 27/47/12 28/2/2
f 12/48/39 27/47/12 11/4/4
f 27/57/12 24/58/38 19/59/6
f 4/51/40 3/49/11 31/19/13
f 29/56/43 2/54/42 45/41/33
f 44/60/35 20/55/7 45/41/33
f 43/61/37 20/55/7 44/60/35
f 42/62/31 20/55/7 43/61/37
f 41/63/29 20/55/7 42/62/31
f 40/64/27 20/55/7 41/63/29
f 39/65/26 20/55/7 40/64/27
f 38/66/25 21/67/44 20/55/7
f 37/68/24 21/67/44 38/66/25
f 36/69/22 21/67/44 37/68/24
f 35/70/20 21/67/44 36/69/22
f 34/71/18 21/67/44 35/70/20
f 33/72/16 21/67/44 34/71/18
f 32/73/14 21/67/44 33/72/16
f 31/19/13 21/67/44 32/73/14
f 39/65/26 38/66/25 20/55/7
f 30/50/10 21/67/44 31/19/13
f 22/74/5 23/75/3 28/76/2
f 23/77/3 22/78/5 19/79/6
f 2/80/42 29/81/43 20/82/7
f 2/83/42 24/84/38 18/85/41
f 18/85/41 24/84/38 17/86/34
f 17/86/34 24/84/38 16/87/36
f 16/87/36 24/84/38 15/88/32
f 15/88/32 24/84/38 14/89/30
f 14/89/30 24/84/38 13/90/28
f 13/90/28 24/84/38 12/91/39
f 12/92/39 11/93/4 24/94/38
f 11/93/4 23/77/3 24/94/38
f 10/95/1 23/96/3 9/97/23
f 9/97/23 23/96/3 8/98/21
f 8/98/21 23/96/3 7/99/19
f 7/99/19 23/96/3 6/100/17
f 6/100/17 23/96/3 5/101/15
f 5/101/15 23/96/3 4/102/40
f 4/102/40 23/96/3 3/103/11
f 10/104/1 23/77/3 11/93/4
f 21/105/44 30/14/10 22/16/5
f 21/106/44 22/5/5 20/7/7
f 25/107/9 27/57/12 19/59/6
f 26/108/8 22/74/5 28/76/2
f 24/94/38 23/77/3 19/79/6
f 19/109/6 2/80/42 20/82/7
