# Blender v2.76 (sub 0) OBJ File: 'wall.blend'
# www.blender.org
mtllib Wall2.mtl
o Plane
v 15.000000 1.000001 0.000001
v 15.000000 -0.999999 0.000001
v -15.000000 0.999999 -0.000001
v -15.000000 -1.000001 -0.000001
v 15.000000 1.000001 -0.299999
v 15.000000 -0.999999 -0.299999
v -15.000000 0.999999 -0.300001
v -15.000000 -1.000001 -0.300001
vt 1.000000 0.000000
vt 1.000000 1.000000
vt 0.000000 1.000000
vt 0.000000 0.000000
vn -0.000000 0.000000 1.000000
vn 0.000000 0.000000 -1.000000
vn 0.000000 -1.000000 0.000000
vn -0.000000 1.000000 0.000000
vn -1.000000 0.000000 0.000000
vn 1.000000 0.000000 0.000000
usemtl Material.001
s off
f 3/1/1 4/2/1 2/3/1
f 5/4/2 6/1/2 8/2/2
f 2/4/3 4/1/3 8/2/3
f 1/1/4 5/2/4 7/3/4
f 3/1/5 7/2/5 8/3/5
f 2/1/6 6/2/6 5/3/6
f 1/4/1 3/1/1 2/3/1
f 7/3/2 5/4/2 8/2/2
f 6/3/3 2/4/3 8/2/3
f 3/4/4 1/1/4 7/3/4
f 4/4/5 3/1/5 8/3/5
f 1/4/6 2/1/6 5/3/6
