# Blender v2.76 (sub 0) OBJ File: 'newcyl.blend'
# www.blender.org
mtllib Cylinder.mtl
o Cylinder
v 0.000000 -1.000000 -1.000000
v 0.000000 1.000000 -1.000000
v 0.195090 1.000000 -0.980785
v 0.195090 -1.000000 -0.980785
v 0.382683 1.000000 -0.923880
v 0.382683 -1.000000 -0.923880
v 0.555570 1.000000 -0.831470
v 0.555570 -1.000000 -0.831470
v 0.707107 1.000000 -0.707107
v 0.707107 -1.000000 -0.707107
v 0.831470 1.000000 -0.555570
v 0.831470 -1.000000 -0.555570
v 0.923880 1.000000 -0.382683
v 0.923880 -1.000000 -0.382683
v 0.980785 1.000000 -0.195090
v 0.980785 -1.000000 -0.195090
v 1.000000 1.000000 0.000000
v 1.000000 -1.000000 -0.000000
v 0.980785 1.000000 0.195090
v 0.980785 -1.000000 0.195090
v 0.923880 1.000000 0.382683
v 0.923880 -1.000000 0.382683
v 0.831470 1.000000 0.555570
v 0.831470 -1.000000 0.555570
v 0.707107 1.000000 0.707107
v 0.707107 -1.000000 0.707107
v 0.555570 1.000000 0.831470
v 0.555570 -1.000000 0.831470
v 0.382683 1.000000 0.923880
v 0.382683 -1.000000 0.923880
v 0.195090 1.000000 0.980785
v 0.195090 -1.000000 0.980785
v 0.000000 1.000000 1.000000
v 0.000000 -1.000000 1.000000
v -0.195091 1.000000 0.980785
v -0.195091 -1.000000 0.980785
v -0.382684 1.000000 0.923879
v -0.382684 -1.000000 0.923879
v -0.555571 1.000000 0.831469
v -0.555571 -1.000000 0.831469
v -0.707107 1.000000 0.707106
v -0.707107 -1.000000 0.707106
v -0.831470 1.000000 0.555570
v -0.831470 -1.000000 0.555570
v -0.923880 1.000000 0.382683
v -0.923880 -1.000000 0.382683
v -0.980785 1.000000 0.195089
v -0.980785 -1.000000 0.195089
v -1.000000 1.000000 -0.000001
v -1.000000 -1.000000 -0.000001
v -0.980785 1.000000 -0.195091
v -0.980785 -1.000000 -0.195091
v -0.923879 1.000000 -0.382684
v -0.923879 -1.000000 -0.382684
v -0.831469 1.000000 -0.555571
v -0.831469 -1.000000 -0.555571
v -0.707106 1.000000 -0.707108
v -0.707106 -1.000000 -0.707108
v -0.555569 1.000000 -0.831470
v -0.555569 -1.000000 -0.831470
v -0.382682 1.000000 -0.923880
v -0.382682 -1.000000 -0.923880
v -0.195089 1.000000 -0.980786
v -0.195089 -1.000000 -0.980786
vt 0.472281 0.289182
vt 0.472281 0.607926
vt 0.456264 0.607926
vt 0.456264 0.289182
vt 0.440246 0.607926
vt 0.440246 0.289182
vt 0.424229 0.607926
vt 0.424229 0.289182
vt 0.408212 0.607926
vt 0.408212 0.289182
vt 0.392195 0.607926
vt 0.392195 0.289182
vt 0.376177 0.607926
vt 0.376177 0.289182
vt 0.360160 0.607926
vt 0.360160 0.289182
vt 0.344143 0.607926
vt 0.344142 0.289183
vt 0.328126 0.607927
vt 0.328125 0.289183
vt 0.312108 0.607927
vt 0.312108 0.289183
vt 0.296091 0.607927
vt 0.296091 0.289183
vt 0.280074 0.607927
vt 0.280073 0.289183
vt 0.264057 0.607927
vt 0.264056 0.289183
vt 0.248039 0.607927
vt 0.248039 0.289183
vt 0.232022 0.607927
vt 0.232021 0.289183
vt 0.216005 0.607928
vt 0.216004 0.289183
vt 0.199987 0.607928
vt 0.199987 0.289184
vt 0.183970 0.607928
vt 0.183969 0.289184
vt 0.167953 0.607928
vt 0.167952 0.289184
vt 0.151936 0.607928
vt 0.151935 0.289184
vt 0.135918 0.607929
vt 0.135917 0.289184
vt 0.119901 0.607929
vt 0.119900 0.289185
vt 0.103884 0.607929
vt 0.103883 0.289185
vt 0.087867 0.607929
vt 0.087865 0.289185
vt 0.071849 0.607930
vt 0.071848 0.289185
vt 0.584402 0.289183
vt 0.584402 0.607927
vt 0.568384 0.607926
vt 0.568385 0.289183
vt 0.552367 0.607926
vt 0.552367 0.289183
vt 0.536350 0.607926
vt 0.536350 0.289183
vt 0.520333 0.607926
vt 0.520333 0.289183
vt 0.504315 0.607926
vt 0.504315 0.289182
vt 0.256442 0.856586
vt 0.236817 0.876210
vt 0.213742 0.891629
vt 0.188102 0.902249
vt 0.160882 0.907663
vt 0.133130 0.907663
vt 0.105910 0.902249
vt 0.080270 0.891629
vt 0.057194 0.876210
vt 0.037570 0.856586
vt 0.022152 0.833510
vt 0.011531 0.807870
vt 0.006117 0.780651
vt 0.006117 0.752898
vt 0.011531 0.725679
vt 0.022152 0.700038
vt 0.037570 0.676963
vt 0.057194 0.657338
vt 0.080270 0.641920
vt 0.105910 0.631299
vt 0.133130 0.625885
vt 0.160882 0.625885
vt 0.188102 0.631299
vt 0.213742 0.641920
vt 0.236818 0.657339
vt 0.256442 0.676963
vt 0.271860 0.700038
vt 0.282481 0.725679
vt 0.287895 0.752898
vt 0.287895 0.780651
vt 0.282481 0.807870
vt 0.271860 0.833511
vt 0.488298 0.289182
vt 0.488298 0.607926
vt 0.216446 0.008205
vt 0.240771 0.024459
vt 0.261458 0.045145
vt 0.277712 0.069471
vt 0.288908 0.096500
vt 0.294615 0.125193
vt 0.294615 0.154449
vt 0.288908 0.183143
vt 0.277712 0.210172
vt 0.261458 0.234497
vt 0.240771 0.255184
vt 0.216446 0.271437
vt 0.189417 0.282633
vt 0.160723 0.288341
vt 0.131468 0.288341
vt 0.102774 0.282633
vt 0.075745 0.271437
vt 0.051420 0.255184
vt 0.030733 0.234497
vt 0.014480 0.210172
vt 0.003284 0.183143
vt -0.002423 0.154449
vt -0.002423 0.125193
vt 0.003284 0.096500
vt 0.014480 0.069471
vt 0.030733 0.045146
vt 0.051420 0.024459
vt 0.075746 0.008205
vt 0.102775 -0.002991
vt 0.131468 -0.008698
vt 0.160724 -0.008698
vt 0.189417 -0.002991
vn 0.000000 -0.685700 -0.727900
vn 0.000000 0.685700 -0.727900
vn 0.142000 0.685700 -0.713900
vn 0.142000 -0.685700 -0.713900
vn 0.278500 0.685700 -0.672500
vn 0.278500 -0.685700 -0.672500
vn 0.404400 0.685700 -0.605200
vn 0.404400 -0.685700 -0.605200
vn 0.514700 0.685700 -0.514700
vn 0.514700 -0.685700 -0.514700
vn 0.605200 0.685700 -0.404400
vn 0.605200 -0.685700 -0.404400
vn 0.672500 0.685700 -0.278500
vn 0.672500 -0.685700 -0.278500
vn 0.713900 0.685700 -0.142000
vn 0.713900 -0.685700 -0.142000
vn 0.727900 0.685700 -0.000000
vn 0.727900 -0.685700 -0.000000
vn 0.713900 0.685700 0.142000
vn 0.713900 -0.685700 0.142000
vn 0.672500 0.685700 0.278500
vn 0.672500 -0.685700 0.278500
vn 0.605200 0.685700 0.404400
vn 0.605200 -0.685700 0.404400
vn 0.514700 0.685700 0.514700
vn 0.514700 -0.685700 0.514700
vn 0.404400 0.685700 0.605200
vn 0.404400 -0.685700 0.605200
vn 0.278500 0.685700 0.672500
vn 0.278500 -0.685700 0.672500
vn 0.142000 0.685700 0.713900
vn 0.142000 -0.685700 0.713900
vn 0.000000 0.685700 0.727900
vn 0.000000 -0.685700 0.727900
vn -0.142000 0.685700 0.713900
vn -0.142000 -0.685700 0.713900
vn -0.278600 0.685700 0.672500
vn -0.278600 -0.685700 0.672500
vn -0.404400 0.685700 0.605200
vn -0.404400 -0.685700 0.605200
vn -0.514700 0.685700 0.514700
vn -0.514700 -0.685700 0.514700
vn -0.605200 0.685700 0.404400
vn -0.605200 -0.685700 0.404400
vn -0.672500 0.685700 0.278500
vn -0.672500 -0.685700 0.278500
vn -0.713900 0.685700 0.142000
vn -0.713900 -0.685700 0.142000
vn -0.727900 0.685700 -0.000000
vn -0.727900 -0.685700 -0.000000
vn -0.713900 0.685700 -0.142000
vn -0.713900 -0.685700 -0.142000
vn -0.672500 0.685700 -0.278600
vn -0.672500 -0.685700 -0.278600
vn -0.605200 0.685700 -0.404400
vn -0.605200 -0.685700 -0.404400
vn -0.514700 0.685700 -0.514700
vn -0.514700 -0.685700 -0.514700
vn -0.404400 0.685700 -0.605200
vn -0.404400 -0.685700 -0.605200
vn -0.278600 0.685700 -0.672500
vn -0.278600 -0.685700 -0.672500
vn -0.142000 0.685700 -0.713900
vn -0.142000 -0.685700 -0.713900
usemtl CylinderMat
s 1
f 1/1/1 2/2/2 3/3/3 4/4/4
f 4/4/4 3/3/3 5/5/5 6/6/6
f 6/6/6 5/5/5 7/7/7 8/8/8
f 8/8/8 7/7/7 9/9/9 10/10/10
f 10/10/10 9/9/9 11/11/11 12/12/12
f 12/12/12 11/11/11 13/13/13 14/14/14
f 14/14/14 13/13/13 15/15/15 16/16/16
f 16/16/16 15/15/15 17/17/17 18/18/18
f 18/18/18 17/17/17 19/19/19 20/20/20
f 20/20/20 19/19/19 21/21/21 22/22/22
f 22/22/22 21/21/21 23/23/23 24/24/24
f 24/24/24 23/23/23 25/25/25 26/26/26
f 26/26/26 25/25/25 27/27/27 28/28/28
f 28/28/28 27/27/27 29/29/29 30/30/30
f 30/30/30 29/29/29 31/31/31 32/32/32
f 32/32/32 31/31/31 33/33/33 34/34/34
f 34/34/34 33/33/33 35/35/35 36/36/36
f 36/36/36 35/35/35 37/37/37 38/38/38
f 38/38/38 37/37/37 39/39/39 40/40/40
f 40/40/40 39/39/39 41/41/41 42/42/42
f 42/42/42 41/41/41 43/43/43 44/44/44
f 44/44/44 43/43/43 45/45/45 46/46/46
f 46/46/46 45/45/45 47/47/47 48/48/48
f 48/48/48 47/47/47 49/49/49 50/50/50
f 50/50/50 49/49/49 51/51/51 52/52/52
f 52/53/52 51/54/51 53/55/53 54/56/54
f 54/56/54 53/55/53 55/57/55 56/58/56
f 56/58/56 55/57/55 57/59/57 58/60/58
f 58/60/58 57/59/57 59/61/59 60/62/60
f 60/62/60 59/61/59 61/63/61 62/64/62
f 3/65/3 2/66/2 63/67/63 61/68/61 59/69/59 57/70/57 55/71/55 53/72/53 51/73/51 49/74/49 47/75/47 45/76/45 43/77/43 41/78/41 39/79/39 37/80/37 35/81/35 33/82/33 31/83/31 29/84/29 27/85/27 25/86/25 23/87/23 21/88/21 19/89/19 17/90/17 15/91/15 13/92/13 11/93/11 9/94/9 7/95/7 5/96/5
f 64/97/64 63/98/63 2/2/2 1/1/1
f 62/64/62 61/63/61 63/98/63 64/97/64
f 1/99/1 4/100/4 6/101/6 8/102/8 10/103/10 12/104/12 14/105/14 16/106/16 18/107/18 20/108/20 22/109/22 24/110/24 26/111/26 28/112/28 30/113/30 32/114/32 34/115/34 36/116/36 38/117/38 40/118/40 42/119/42 44/120/44 46/121/46 48/122/48 50/123/50 52/124/52 54/125/54 56/126/56 58/127/58 60/128/60 62/129/62 64/130/64
