# Blender v2.76 (sub 0) OBJ File: 'launchguard.blend'
# www.blender.org
mtllib launchguard2.mtl
o Bumper_Cylinder
v 1.506233 0.005746 -1.558289
v 1.506233 2.005746 -1.558289
v 0.932159 0.038644 1.525503
v 0.932159 2.038644 1.525503
v 0.672572 0.038644 1.249775
v 0.672572 2.038644 1.249775
v 0.494987 0.038644 0.913799
v 0.494987 2.038644 0.913799
v 0.389393 0.038644 0.530487
v 0.389393 2.038644 0.530487
v 0.373255 0.038644 0.114569
v 0.373255 2.038644 0.114569
v 0.394645 0.038644 -0.000001
v 0.394645 2.038644 -0.000001
v 0.409546 0.038644 -0.195091
v 0.409546 2.038644 -0.195091
v 0.498587 0.038644 -0.382684
v 0.498587 2.038644 -0.382684
v 0.576855 0.038644 -0.555571
v 0.576855 2.038644 -0.555571
v 0.795116 0.032959 -0.941179
v 0.795116 2.032959 -0.941179
v 0.999406 0.038635 -1.164139
v 0.999406 2.038635 -1.164139
v 1.235403 0.029654 -1.347435
v 1.235403 2.029654 -1.347435
v 1.348365 0.017641 -1.440892
v 1.348365 2.017641 -1.440892
v -3.018917 2.034512 -1.232212
v -3.018917 0.034512 -1.232212
vt 0.027365 0.415099
vt 0.027365 0.674370
vt 0.000174 0.674370
vt 0.058326 0.415099
vt 0.058326 0.674370
vt 0.092402 0.415099
vt 0.092403 0.674370
vt 0.128682 0.415099
vt 0.128682 0.674370
vt 0.138722 0.415099
vt 0.138722 0.674370
vt 0.155664 0.415099
vt 0.155664 0.674370
vt 0.172606 0.415099
vt 0.172606 0.674370
vt 0.189548 0.415099
vt 0.189548 0.674370
vt 0.229443 0.414362
vt 0.229443 0.673632
vt 0.255541 0.415098
vt 0.255541 0.674368
vt 0.281453 0.413933
vt 0.281453 0.673204
vt 0.295423 0.412376
vt 0.312202 0.410834
vt 0.312202 0.670105
vt 0.295423 0.671647
vt 0.789922 0.998229
vt 0.617078 0.999827
vt 0.617078 0.394702
vt 0.000174 0.234548
vt 0.319340 0.180124
vt 0.317202 0.205333
vt 0.318383 0.230684
vt 0.375408 0.391106
vt 0.386161 0.410487
vt 0.366111 0.375386
vt 0.349657 0.345339
vt 0.336793 0.311270
vt 0.322839 0.255202
vt 0.323165 0.166198
vt 0.335970 0.115279
vt 0.351137 0.069507
vt 0.368084 0.030642
vt 0.386161 0.000174
vt 0.681336 0.191440
vt 0.682298 0.206431
vt 0.386508 0.000174
vt 0.776933 0.013110
vt 0.763935 0.025011
vt 0.789922 0.000174
vt 0.690319 0.311143
vt 0.699001 0.355722
vt 0.684679 0.260734
vt 0.710392 0.392757
vt 0.684177 0.166387
vt 0.690221 0.142647
vt 0.699237 0.121131
vt 0.723455 0.073571
vt 0.742367 0.046584
vt 0.790269 0.000396
vt 0.963116 0.000174
vt 0.963116 0.624795
vt 0.000174 0.415099
vt 0.789922 0.393104
vt 0.790269 0.625018
vn 0.728100 0.000000 -0.685500
vn 0.884100 0.000000 -0.467300
vn 0.964100 0.000000 -0.265600
vn 0.999200 0.000000 -0.038800
vn 0.983000 0.000000 0.183500
vn 0.997100 0.000000 0.076200
vn 0.903400 0.000000 0.428800
vn 0.911000 0.000000 0.412400
vn 0.870300 0.000000 0.492600
vn 0.737300 0.000000 0.675600
vn 0.613400 0.000000 0.789800
vn 0.596700 0.000000 0.802400
vn 0.637500 0.000000 0.770500
vn -0.071900 0.000000 -0.997400
vn -0.001200 1.000000 -0.000100
vn -0.001100 1.000000 -0.000500
vn -0.001000 0.994800 -0.102200
vn -0.002400 0.991500 -0.130300
vn -0.000200 0.998800 -0.049200
vn -0.001400 0.999700 0.024100
vn 0.001500 0.999900 -0.013900
vn -0.001100 1.000000 -0.000200
vn -0.001200 1.000000 0.000000
vn -0.001400 1.000000 0.000400
vn -0.001700 1.000000 0.000900
vn -0.003100 1.000000 0.002900
vn 0.001100 -1.000000 0.000200
vn -0.184400 0.921700 -0.341300
vn 0.001700 -1.000000 -0.000900
vn 0.001400 -1.000000 -0.000400
vn 0.003100 -1.000000 -0.002900
vn 0.001200 -1.000000 0.000100
vn 0.001100 -1.000000 0.000500
vn -0.001500 -0.999900 0.013900
vn 0.001400 -0.999700 -0.024100
vn -0.572300 0.000000 0.820000
vn 0.001200 -1.000000 -0.000000
vn 0.000200 -0.998800 0.049200
vn 0.002000 -0.993300 0.115200
usemtl Material.001
s off
f 5/1/1 6/2/1 4/3/1
f 7/4/2 8/5/2 6/2/2
f 9/6/3 10/7/3 8/5/3
f 11/8/4 12/9/4 10/7/4
f 13/10/5 14/11/5 12/9/5
f 15/12/6 16/13/6 14/11/6
f 17/14/7 18/15/7 16/13/7
f 19/16/8 20/17/8 18/15/8
f 19/16/9 21/18/9 22/19/9
f 23/20/10 24/21/10 22/19/10
f 23/20/11 25/22/11 26/23/11
f 27/24/12 1/25/12 2/26/12
f 25/22/13 27/24/13 28/27/13
f 30/28/14 29/29/14 2/30/14
f 29/31/15 14/32/15 16/33/15
f 18/34/16 29/31/16 16/33/16
f 28/35/17 2/36/17 29/31/17
f 26/37/18 28/35/18 29/31/18
f 24/38/19 26/37/19 29/31/19
f 22/39/20 24/38/20 29/31/20
f 20/40/21 22/39/21 29/31/21
f 18/34/16 20/40/16 29/31/16
f 29/31/22 12/41/22 14/32/22
f 29/31/23 10/42/23 12/41/23
f 29/31/24 8/43/24 10/42/24
f 29/31/25 6/44/25 8/43/25
f 29/31/26 4/45/26 6/44/26
f 13/46/27 11/47/27 30/48/27
f 27/49/28 25/50/28 1/51/28
f 7/52/29 5/53/29 30/48/29
f 9/54/30 7/52/30 30/48/30
f 30/48/31 5/53/31 3/55/31
f 15/56/32 13/46/32 30/48/32
f 17/57/33 15/56/33 30/48/33
f 19/58/33 17/57/33 30/48/33
f 21/59/34 19/58/34 30/48/34
f 23/60/35 21/59/35 30/48/35
f 3/61/36 4/62/36 29/63/36
f 9/54/37 30/48/37 11/47/37
f 25/50/38 23/60/38 30/48/38
f 1/51/39 25/50/39 30/48/39
f 3/64/1 5/1/1 4/3/1
f 5/1/2 7/4/2 6/2/2
f 7/4/3 9/6/3 8/5/3
f 9/6/4 11/8/4 10/7/4
f 11/8/5 13/10/5 12/9/5
f 13/10/6 15/12/6 14/11/6
f 15/12/7 17/14/7 16/13/7
f 17/14/8 19/16/8 18/15/8
f 20/17/9 19/16/9 22/19/9
f 21/18/10 23/20/10 22/19/10
f 24/21/11 23/20/11 26/23/11
f 28/27/12 27/24/12 2/26/12
f 26/23/13 25/22/13 28/27/13
f 1/65/14 30/28/14 2/30/14
f 30/66/36 3/61/36 29/63/36
