# Blender v2.79 (sub 0) OBJ File: 'Table.blend'
# www.blender.org
mtllib Table.mtl
o Cube
v 15.000003 -1.312598 -15.000001
v 15.000003 -1.312598 14.999997
v -14.999997 -1.312598 14.999993
v -14.999990 -1.312598 -15.000009
v 15.000010 0.000001 -14.999993
v 14.999993 0.000001 15.000005
v -15.000005 0.000001 14.999990
v -14.999997 0.000001 -15.000003
v 13.568948 -1.312598 -13.568946
v 13.568948 -1.312598 13.568942
v -13.568936 -1.312598 -13.568953
v -13.568944 -1.312598 13.568938
v 13.568942 -1.312598 -15.000003
v 15.000003 -1.312598 -13.568942
v -13.568936 -1.312598 -15.000007
v -14.999997 -1.312598 -13.568942
v -14.999997 -1.312598 13.568936
v 15.000003 -1.312598 13.568936
v 13.568942 -1.312598 14.999997
v -13.568936 -1.312598 14.999997
v 15.000003 -1.312598 -15.000001
v 13.568942 -1.312598 -15.000003
v 15.000003 -1.312598 -13.568942
v 13.568948 -1.312598 -13.568946
v 15.000003 -16.312597 -15.000001
v 15.000003 -16.312597 -13.568942
v 13.568948 -16.312597 -13.568946
v 13.568942 -16.312597 -15.000003
v -13.568936 -16.312597 -15.000007
v -14.999990 -16.312597 -15.000009
v -14.999997 -16.312597 -13.568942
v -13.568936 -16.312597 -13.568953
v -13.568936 -16.312597 14.999997
v -14.999997 -16.312597 14.999993
v -14.999997 -16.312597 13.568936
v -13.568944 -16.312597 13.568938
v 15.000003 -16.312597 13.568936
v 15.000003 -16.312597 14.999997
v 13.568942 -16.312597 14.999997
v 13.568948 -16.312597 13.568942
vt 0.304126 0.015901
vt 0.015234 0.015901
vt 0.015234 0.000000
vt 0.304126 0.000000
vt 0.000000 0.333333
vt 0.319360 0.333333
vt 0.319360 0.666667
vt 0.000000 0.666667
vt 0.479040 0.000000
vt 0.493013 0.000000
vt 0.493013 0.333333
vt 0.479040 0.333333
vt 0.479040 0.317433
vt 0.479040 0.015901
vt 0.652694 0.000000
vt 0.666667 0.000000
vt 0.666667 0.333333
vt 0.652694 0.333333
vt 0.652694 0.317433
vt 0.652694 0.015901
vt 0.173653 0.666667
vt 0.187626 0.666667
vt 0.187626 0.682567
vt 0.187626 0.984099
vt 0.187626 1.000000
vt 0.173653 1.000000
vt 0.304126 0.317433
vt 0.015234 0.317433
vt 0.432077 0.500000
vt 0.416843 0.500000
vt 0.416843 0.333333
vt 0.432077 0.333333
vt 0.319360 0.015901
vt 0.319360 0.317433
vt 0.000000 0.000000
vt 0.000000 0.000000
vt 0.000000 0.000000
vt 0.000000 0.000000
vt 0.386375 0.500000
vt 0.371141 0.500000
vt 0.371141 0.333333
vt 0.386375 0.333333
vt 0.304126 0.333333
vt 0.015234 0.333333
vt 0.371141 0.500000
vt 0.355907 0.500000
vt 0.355907 0.333333
vt 0.371141 0.333333
vt 0.000000 0.317433
vt 0.000000 0.015901
vt 0.477779 0.333333
vt 0.493014 0.333333
vt 0.493014 0.500000
vt 0.477779 0.500000
vt 0.000000 0.000000
vt 0.000000 0.000000
vt 0.000000 0.000000
vt 0.000000 0.000000
vt 0.340672 0.333333
vt 0.340672 0.349234
vt 0.325438 0.349234
vt 0.325438 0.333333
vt 0.401609 0.500000
vt 0.386375 0.500000
vt 0.386375 0.333333
vt 0.401609 0.333333
vt 0.447311 0.500000
vt 0.432077 0.500000
vt 0.432077 0.333333
vt 0.447311 0.333333
vt 0.462545 0.500000
vt 0.447311 0.500000
vt 0.447311 0.333333
vt 0.462545 0.333333
vt 0.355907 0.333333
vt 0.355907 0.349234
vt 0.340673 0.349234
vt 0.340672 0.333333
vt 0.493013 0.333333
vt 0.508248 0.333333
vt 0.508248 0.500000
vt 0.493014 0.500000
vt 0.493014 0.333333
vt 0.493013 0.317433
vt 0.347306 0.984099
vt 0.347306 1.000000
vt 0.340672 0.349234
vt 0.340672 0.365135
vt 0.325438 0.365135
vt 0.325438 0.349234
vt 0.493014 0.015901
vt 0.493013 0.000000
vt 0.462545 0.333333
vt 0.477779 0.333333
vt 0.477779 0.500000
vt 0.462545 0.500000
vt 0.013973 0.682567
vt 0.013973 0.666667
vt 0.173653 0.666667
vt 0.173653 0.682567
vt 0.355907 0.349234
vt 0.355907 0.365135
vt 0.340672 0.365135
vt 0.340672 0.349234
vt 0.013973 1.000000
vt 0.013973 0.984099
vt 0.173653 0.984099
vt 0.173653 1.000000
vt 0.401609 0.333333
vt 0.416843 0.333333
vt 0.416843 0.500000
vt 0.401609 0.500000
vt 0.319360 0.333333
vt 0.319360 0.317433
vt 0.000000 1.000000
vt 0.000000 0.666667
vn 0.0000 -1.0000 0.0000
vn 0.0000 1.0000 0.0000
vn 1.0000 0.0000 0.0000
vn -1.0000 -0.0000 -0.0000
vn 0.0000 0.0000 -1.0000
vn 0.0000 0.0000 1.0000
usemtl Material
s off
f 10/1/1 9/2/1 14/3/1 18/4/1
f 5/5/2 8/6/2 7/7/2 6/8/2
f 1/9/3 5/10/3 6/11/3 2/12/3 18/13/3 14/14/3
f 3/15/4 7/16/4 8/17/4 4/18/4 16/19/4 17/20/4
f 5/21/5 1/22/5 13/23/5 15/24/5 4/25/5 8/26/5
f 9/2/1 10/1/1 12/27/1 11/28/1
f 10/29/5 18/30/5 37/31/5 40/32/5
f 12/27/1 10/1/1 19/33/1 20/34/1
f 13/35/6 1/36/6 21/37/6 22/38/6
f 17/39/5 12/40/5 36/41/5 35/42/5
f 11/28/1 12/27/1 17/43/1 16/44/1
f 15/45/3 11/46/3 32/47/3 29/48/3
f 11/28/1 15/49/1 13/50/1 9/2/1
f 22/51/5 21/52/5 25/53/5 28/54/5
f 9/55/6 13/35/6 22/38/6 24/56/6
f 1/36/6 14/57/6 23/58/6 21/37/6
f 14/57/6 9/55/6 24/56/6 23/58/6
f 25/59/1 26/60/1 27/61/1 28/62/1
f 23/63/6 24/64/6 27/65/6 26/66/6
f 24/67/4 22/68/4 28/69/4 27/70/4
f 21/71/3 23/72/3 26/73/3 25/74/3
f 30/75/1 29/76/1 32/77/1 31/78/1
f 11/79/6 16/80/6 31/81/6 32/82/6
f 16/19/4 4/18/4 30/83/4 31/84/4
f 4/25/5 15/24/5 29/85/5 30/86/5
f 34/87/1 35/88/1 36/89/1 33/90/1
f 3/15/4 17/20/4 35/91/4 34/92/4
f 12/93/3 20/94/3 33/95/3 36/96/3
f 20/97/6 3/98/6 34/99/6 33/100/6
f 38/101/1 39/102/1 40/103/1 37/104/1
f 2/105/6 19/106/6 39/107/6 38/108/6
f 19/109/4 10/110/4 40/111/4 39/112/4
f 18/13/3 2/12/3 38/113/3 37/114/3
usemtl Material_NONE
f 2/105/6 6/115/6 7/116/6 3/98/6 20/97/6 19/106/6
