# Blender v2.76 (sub 0) OBJ File: ''
# www.blender.org
mtllib NewBoard.mtl
o Cube.001
v 0.197106 -0.181773 0.975625
v -1.802894 -0.181773 -1.024375
v 0.197106 -0.181773 -1.024375
v 0.197106 0.750010 -1.024374
v -1.529532 0.750010 -0.880245
v 0.182209 0.750010 -0.880245
v -1.802894 0.750010 0.975625
v -1.802894 0.750010 -1.024375
v 0.197105 0.750010 0.975626
v -1.802894 -0.181773 0.975625
v 1.887024 0.750010 -1.024374
v 1.887023 -0.181773 0.975625
v 1.887023 -0.181773 -1.024374
v 1.887022 0.750010 0.975626
v 0.182208 0.750010 0.831496
v -1.529533 0.272886 0.831495
v -1.529533 0.750010 0.831495
v 1.628559 0.750010 -0.880244
v 1.628558 0.272886 0.831496
v 1.628558 0.750010 0.831496
v -1.529532 0.272886 -0.880245
v 0.182209 0.008953 -0.880245
v 0.182209 0.272886 -0.880245
v -1.529532 0.008953 -0.880245
v 0.182208 0.272886 0.831496
v 1.628559 0.272886 -0.880244
v 0.182208 0.008953 0.831496
v 1.628558 0.008953 0.831496
v 1.628559 0.008953 -0.880244
v -1.529533 0.008953 0.831495
vn 0.000000 -1.000000 -0.000000
vn 0.000000 1.000000 -0.000000
vn -0.000000 -0.000000 1.000000
vn -1.000000 0.000000 0.000000
vn 0.000000 0.000000 -1.000000
vn 1.000000 -0.000000 0.000000
usemtl Wood
s 1
f 1//1 2//1 3//1
f 4//2 5//2 6//2
f 7//2 5//2 8//2
f 9//3 10//3 1//3
f 7//4 2//4 10//4
f 3//5 8//5 4//5
f 11//6 12//6 13//6
f 1//3 14//3 9//3
f 4//5 13//5 3//5
f 3//1 12//1 1//1
f 15//5 16//5 17//5
f 18//4 19//4 20//4
f 9//2 20//2 15//2
f 9//2 17//2 7//2
f 4//2 18//2 11//2
f 14//2 18//2 20//2
f 21//3 22//3 23//3
f 16//6 24//6 21//6
f 20//5 25//5 15//5
f 17//6 21//6 5//6
f 5//3 23//3 6//3
f 6//3 26//3 18//3
f 24//2 27//2 22//2
f 22//2 28//2 29//2
f 23//3 29//3 26//3
f 26//4 28//4 19//4
f 25//5 30//5 16//5
f 19//5 27//5 25//5
f 1//1 10//1 2//1
f 4//2 8//2 5//2
f 7//2 17//2 5//2
f 9//3 7//3 10//3
f 7//4 8//4 2//4
f 3//5 2//5 8//5
f 11//6 14//6 12//6
f 1//3 12//3 14//3
f 4//5 11//5 13//5
f 3//1 13//1 12//1
f 15//5 25//5 16//5
f 18//4 26//4 19//4
f 9//2 14//2 20//2
f 9//2 15//2 17//2
f 4//2 6//2 18//2
f 14//2 11//2 18//2
f 21//3 24//3 22//3
f 16//6 30//6 24//6
f 20//5 19//5 25//5
f 17//6 16//6 21//6
f 5//3 21//3 23//3
f 6//3 23//3 26//3
f 24//2 30//2 27//2
f 22//2 27//2 28//2
f 23//3 22//3 29//3
f 26//4 29//4 28//4
f 25//5 27//5 30//5
f 19//5 28//5 27//5
